%TF.GenerationSoftware,KiCad,Pcbnew,9.0.4*%
%TF.CreationDate,2025-11-10T20:34:51-07:00*%
%TF.ProjectId,ideaspark_esp_board,69646561-7370-4617-926b-5f6573705f62,rev?*%
%TF.SameCoordinates,Original*%
%TF.FileFunction,Soldermask,Bot*%
%TF.FilePolarity,Negative*%
%FSLAX46Y46*%
G04 Gerber Fmt 4.6, Leading zero omitted, Abs format (unit mm)*
G04 Created by KiCad (PCBNEW 9.0.4) date 2025-11-10 20:34:51*
%MOMM*%
%LPD*%
G01*
G04 APERTURE LIST*
%ADD10C,2.200000*%
G04 APERTURE END LIST*
D10*
%TO.C,U3*%
X34000000Y69280000D03*
X34000000Y66740000D03*
X34000000Y64200000D03*
X34000000Y61660000D03*
X34000000Y59120000D03*
X34000000Y56580000D03*
X34000000Y54040000D03*
X34000000Y51500000D03*
X34000000Y48960000D03*
X34000000Y46420000D03*
X34000000Y43880000D03*
X34000000Y41340000D03*
X34000000Y38800000D03*
X34000000Y36260000D03*
X34000000Y33720000D03*
X6000000Y69280000D03*
X6000000Y66740000D03*
X6000000Y64200000D03*
X6000000Y61660000D03*
X6000000Y59120000D03*
X6000000Y56580000D03*
X6000000Y54040000D03*
X6000000Y51500000D03*
X6000000Y48960000D03*
X6000000Y46420000D03*
X6000000Y43880000D03*
X6000000Y41340000D03*
X6000000Y38800000D03*
X6000000Y36260000D03*
X6000000Y33720000D03*
%TD*%
%TO.C,Power1*%
X12280000Y15740000D03*
X2120000Y15740000D03*
%TD*%
%TO.C,U2*%
X23600000Y18040000D03*
X23600000Y12960000D03*
X15980000Y18040000D03*
X15980000Y12960000D03*
%TD*%
%TO.C,LED_ABGR1*%
X19000000Y193400000D03*
X24080000Y193400000D03*
X21540000Y193400000D03*
X16460000Y193400000D03*
%TD*%
%TO.C,Q1*%
X20600000Y157600000D03*
X18060000Y157600000D03*
X23140000Y157600000D03*
%TD*%
%TO.C,Motor_DC1*%
X16000000Y123300000D03*
X26160000Y123300000D03*
%TD*%
%TO.C,Switch1*%
X27600000Y15800000D03*
X37760000Y15800000D03*
%TD*%
%TO.C,base_resistor1*%
X20600000Y140840000D03*
X20600000Y151000000D03*
%TD*%
%TO.C,Flyback1*%
X26000000Y130800000D03*
X15840000Y130800000D03*
%TD*%
%TO.C,LED_ARGB1*%
X13200000Y185740000D03*
X13200000Y183200000D03*
X13200000Y180660000D03*
X13200000Y178120000D03*
X13200000Y175580000D03*
X13200000Y173040000D03*
X13200000Y170500000D03*
X13200000Y167960000D03*
%TD*%
M02*
