%TF.GenerationSoftware,KiCad,Pcbnew,9.0.4*%
%TF.CreationDate,2025-11-10T20:34:51-07:00*%
%TF.ProjectId,ideaspark_esp_board,69646561-7370-4617-926b-5f6573705f62,rev?*%
%TF.SameCoordinates,Original*%
%TF.FileFunction,Legend,Top*%
%TF.FilePolarity,Positive*%
%FSLAX46Y46*%
G04 Gerber Fmt 4.6, Leading zero omitted, Abs format (unit mm)*
G04 Created by KiCad (PCBNEW 9.0.4) date 2025-11-10 20:34:51*
%MOMM*%
%LPD*%
G01*
G04 APERTURE LIST*
%ADD10C,0.100000*%
G04 APERTURE END LIST*
D10*
X12900000Y117300000D02*
X27900000Y117300000D01*
X27900000Y87300000D01*
X12900000Y87300000D01*
X12900000Y117300000D01*
X17827693Y18479961D02*
X17732455Y18527580D01*
X17732455Y18527580D02*
X17589598Y18527580D01*
X17589598Y18527580D02*
X17446741Y18479961D01*
X17446741Y18479961D02*
X17351503Y18384723D01*
X17351503Y18384723D02*
X17303884Y18289485D01*
X17303884Y18289485D02*
X17256265Y18099009D01*
X17256265Y18099009D02*
X17256265Y17956152D01*
X17256265Y17956152D02*
X17303884Y17765676D01*
X17303884Y17765676D02*
X17351503Y17670438D01*
X17351503Y17670438D02*
X17446741Y17575200D01*
X17446741Y17575200D02*
X17589598Y17527580D01*
X17589598Y17527580D02*
X17684836Y17527580D01*
X17684836Y17527580D02*
X17827693Y17575200D01*
X17827693Y17575200D02*
X17875312Y17622819D01*
X17875312Y17622819D02*
X17875312Y17956152D01*
X17875312Y17956152D02*
X17684836Y17956152D01*
X18303884Y17527580D02*
X18303884Y18527580D01*
X18303884Y18527580D02*
X18875312Y17527580D01*
X18875312Y17527580D02*
X18875312Y18527580D01*
X19351503Y17527580D02*
X19351503Y18527580D01*
X19351503Y18527580D02*
X19589598Y18527580D01*
X19589598Y18527580D02*
X19732455Y18479961D01*
X19732455Y18479961D02*
X19827693Y18384723D01*
X19827693Y18384723D02*
X19875312Y18289485D01*
X19875312Y18289485D02*
X19922931Y18099009D01*
X19922931Y18099009D02*
X19922931Y17956152D01*
X19922931Y17956152D02*
X19875312Y17765676D01*
X19875312Y17765676D02*
X19827693Y17670438D01*
X19827693Y17670438D02*
X19732455Y17575200D01*
X19732455Y17575200D02*
X19589598Y17527580D01*
X19589598Y17527580D02*
X19351503Y17527580D01*
X8227693Y36679961D02*
X8132455Y36727580D01*
X8132455Y36727580D02*
X7989598Y36727580D01*
X7989598Y36727580D02*
X7846741Y36679961D01*
X7846741Y36679961D02*
X7751503Y36584723D01*
X7751503Y36584723D02*
X7703884Y36489485D01*
X7703884Y36489485D02*
X7656265Y36299009D01*
X7656265Y36299009D02*
X7656265Y36156152D01*
X7656265Y36156152D02*
X7703884Y35965676D01*
X7703884Y35965676D02*
X7751503Y35870438D01*
X7751503Y35870438D02*
X7846741Y35775200D01*
X7846741Y35775200D02*
X7989598Y35727580D01*
X7989598Y35727580D02*
X8084836Y35727580D01*
X8084836Y35727580D02*
X8227693Y35775200D01*
X8227693Y35775200D02*
X8275312Y35822819D01*
X8275312Y35822819D02*
X8275312Y36156152D01*
X8275312Y36156152D02*
X8084836Y36156152D01*
X8703884Y35727580D02*
X8703884Y36727580D01*
X8703884Y36727580D02*
X9275312Y35727580D01*
X9275312Y35727580D02*
X9275312Y36727580D01*
X9751503Y35727580D02*
X9751503Y36727580D01*
X9751503Y36727580D02*
X9989598Y36727580D01*
X9989598Y36727580D02*
X10132455Y36679961D01*
X10132455Y36679961D02*
X10227693Y36584723D01*
X10227693Y36584723D02*
X10275312Y36489485D01*
X10275312Y36489485D02*
X10322931Y36299009D01*
X10322931Y36299009D02*
X10322931Y36156152D01*
X10322931Y36156152D02*
X10275312Y35965676D01*
X10275312Y35965676D02*
X10227693Y35870438D01*
X10227693Y35870438D02*
X10132455Y35775200D01*
X10132455Y35775200D02*
X9989598Y35727580D01*
X9989598Y35727580D02*
X9751503Y35727580D01*
X17303884Y12527580D02*
X17303884Y13527580D01*
X17303884Y13146628D02*
X17399122Y13194247D01*
X17399122Y13194247D02*
X17589598Y13194247D01*
X17589598Y13194247D02*
X17684836Y13146628D01*
X17684836Y13146628D02*
X17732455Y13099009D01*
X17732455Y13099009D02*
X17780074Y13003771D01*
X17780074Y13003771D02*
X17780074Y12718057D01*
X17780074Y12718057D02*
X17732455Y12622819D01*
X17732455Y12622819D02*
X17684836Y12575200D01*
X17684836Y12575200D02*
X17589598Y12527580D01*
X17589598Y12527580D02*
X17399122Y12527580D01*
X17399122Y12527580D02*
X17303884Y12575200D01*
X18065789Y13194247D02*
X18446741Y13194247D01*
X18208646Y13527580D02*
X18208646Y12670438D01*
X18208646Y12670438D02*
X18256265Y12575200D01*
X18256265Y12575200D02*
X18351503Y12527580D01*
X18351503Y12527580D02*
X18446741Y12527580D01*
X18780075Y13194247D02*
X18780075Y12527580D01*
X18780075Y13099009D02*
X18827694Y13146628D01*
X18827694Y13146628D02*
X18922932Y13194247D01*
X18922932Y13194247D02*
X19065789Y13194247D01*
X19065789Y13194247D02*
X19161027Y13146628D01*
X19161027Y13146628D02*
X19208646Y13051390D01*
X19208646Y13051390D02*
X19208646Y12527580D01*
X37303884Y17908533D02*
X38065789Y17908533D01*
X27103884Y17908533D02*
X27865789Y17908533D01*
X27484836Y17527580D02*
X27484836Y18289485D01*
X11903884Y17908533D02*
X12665789Y17908533D01*
X1703884Y17908533D02*
X2465789Y17908533D01*
X2084836Y17527580D02*
X2084836Y18289485D01*
X25903884Y125708533D02*
X26665789Y125708533D01*
X15703884Y125708533D02*
X16465789Y125708533D01*
X16084836Y125327580D02*
X16084836Y126089485D01*
X22903884Y160451390D02*
X23237217Y160451390D01*
X23380074Y159927580D02*
X22903884Y159927580D01*
X22903884Y159927580D02*
X22903884Y160927580D01*
X22903884Y160927580D02*
X23380074Y160927580D01*
X20637217Y160451390D02*
X20780074Y160403771D01*
X20780074Y160403771D02*
X20827693Y160356152D01*
X20827693Y160356152D02*
X20875312Y160260914D01*
X20875312Y160260914D02*
X20875312Y160118057D01*
X20875312Y160118057D02*
X20827693Y160022819D01*
X20827693Y160022819D02*
X20780074Y159975200D01*
X20780074Y159975200D02*
X20684836Y159927580D01*
X20684836Y159927580D02*
X20303884Y159927580D01*
X20303884Y159927580D02*
X20303884Y160927580D01*
X20303884Y160927580D02*
X20637217Y160927580D01*
X20637217Y160927580D02*
X20732455Y160879961D01*
X20732455Y160879961D02*
X20780074Y160832342D01*
X20780074Y160832342D02*
X20827693Y160737104D01*
X20827693Y160737104D02*
X20827693Y160641866D01*
X20827693Y160641866D02*
X20780074Y160546628D01*
X20780074Y160546628D02*
X20732455Y160499009D01*
X20732455Y160499009D02*
X20637217Y160451390D01*
X20637217Y160451390D02*
X20303884Y160451390D01*
X18275312Y160022819D02*
X18227693Y159975200D01*
X18227693Y159975200D02*
X18084836Y159927580D01*
X18084836Y159927580D02*
X17989598Y159927580D01*
X17989598Y159927580D02*
X17846741Y159975200D01*
X17846741Y159975200D02*
X17751503Y160070438D01*
X17751503Y160070438D02*
X17703884Y160165676D01*
X17703884Y160165676D02*
X17656265Y160356152D01*
X17656265Y160356152D02*
X17656265Y160499009D01*
X17656265Y160499009D02*
X17703884Y160689485D01*
X17703884Y160689485D02*
X17751503Y160784723D01*
X17751503Y160784723D02*
X17846741Y160879961D01*
X17846741Y160879961D02*
X17989598Y160927580D01*
X17989598Y160927580D02*
X18084836Y160927580D01*
X18084836Y160927580D02*
X18227693Y160879961D01*
X18227693Y160879961D02*
X18275312Y160832342D01*
X19479961Y190972306D02*
X19527580Y191067544D01*
X19527580Y191067544D02*
X19527580Y191210401D01*
X19527580Y191210401D02*
X19479961Y191353258D01*
X19479961Y191353258D02*
X19384723Y191448496D01*
X19384723Y191448496D02*
X19289485Y191496115D01*
X19289485Y191496115D02*
X19099009Y191543734D01*
X19099009Y191543734D02*
X18956152Y191543734D01*
X18956152Y191543734D02*
X18765676Y191496115D01*
X18765676Y191496115D02*
X18670438Y191448496D01*
X18670438Y191448496D02*
X18575200Y191353258D01*
X18575200Y191353258D02*
X18527580Y191210401D01*
X18527580Y191210401D02*
X18527580Y191115163D01*
X18527580Y191115163D02*
X18575200Y190972306D01*
X18575200Y190972306D02*
X18622819Y190924687D01*
X18622819Y190924687D02*
X18956152Y190924687D01*
X18956152Y190924687D02*
X18956152Y191115163D01*
X18527580Y190496115D02*
X19527580Y190496115D01*
X19527580Y190496115D02*
X18527580Y189924687D01*
X18527580Y189924687D02*
X19527580Y189924687D01*
X18527580Y189448496D02*
X19527580Y189448496D01*
X19527580Y189448496D02*
X19527580Y189210401D01*
X19527580Y189210401D02*
X19479961Y189067544D01*
X19479961Y189067544D02*
X19384723Y188972306D01*
X19384723Y188972306D02*
X19289485Y188924687D01*
X19289485Y188924687D02*
X19099009Y188877068D01*
X19099009Y188877068D02*
X18956152Y188877068D01*
X18956152Y188877068D02*
X18765676Y188924687D01*
X18765676Y188924687D02*
X18670438Y188972306D01*
X18670438Y188972306D02*
X18575200Y189067544D01*
X18575200Y189067544D02*
X18527580Y189210401D01*
X18527580Y189210401D02*
X18527580Y189448496D01*
X23991390Y191162782D02*
X23943771Y191019925D01*
X23943771Y191019925D02*
X23896152Y190972306D01*
X23896152Y190972306D02*
X23800914Y190924687D01*
X23800914Y190924687D02*
X23658057Y190924687D01*
X23658057Y190924687D02*
X23562819Y190972306D01*
X23562819Y190972306D02*
X23515200Y191019925D01*
X23515200Y191019925D02*
X23467580Y191115163D01*
X23467580Y191115163D02*
X23467580Y191496115D01*
X23467580Y191496115D02*
X24467580Y191496115D01*
X24467580Y191496115D02*
X24467580Y191162782D01*
X24467580Y191162782D02*
X24419961Y191067544D01*
X24419961Y191067544D02*
X24372342Y191019925D01*
X24372342Y191019925D02*
X24277104Y190972306D01*
X24277104Y190972306D02*
X24181866Y190972306D01*
X24181866Y190972306D02*
X24086628Y191019925D01*
X24086628Y191019925D02*
X24039009Y191067544D01*
X24039009Y191067544D02*
X23991390Y191162782D01*
X23991390Y191162782D02*
X23991390Y191496115D01*
X23467580Y190019925D02*
X23467580Y190496115D01*
X23467580Y190496115D02*
X24467580Y190496115D01*
X24467580Y189686591D02*
X23658057Y189686591D01*
X23658057Y189686591D02*
X23562819Y189638972D01*
X23562819Y189638972D02*
X23515200Y189591353D01*
X23515200Y189591353D02*
X23467580Y189496115D01*
X23467580Y189496115D02*
X23467580Y189305639D01*
X23467580Y189305639D02*
X23515200Y189210401D01*
X23515200Y189210401D02*
X23562819Y189162782D01*
X23562819Y189162782D02*
X23658057Y189115163D01*
X23658057Y189115163D02*
X24467580Y189115163D01*
X23991390Y188638972D02*
X23991390Y188305639D01*
X23467580Y188162782D02*
X23467580Y188638972D01*
X23467580Y188638972D02*
X24467580Y188638972D01*
X24467580Y188638972D02*
X24467580Y188162782D01*
X22019961Y190972306D02*
X22067580Y191067544D01*
X22067580Y191067544D02*
X22067580Y191210401D01*
X22067580Y191210401D02*
X22019961Y191353258D01*
X22019961Y191353258D02*
X21924723Y191448496D01*
X21924723Y191448496D02*
X21829485Y191496115D01*
X21829485Y191496115D02*
X21639009Y191543734D01*
X21639009Y191543734D02*
X21496152Y191543734D01*
X21496152Y191543734D02*
X21305676Y191496115D01*
X21305676Y191496115D02*
X21210438Y191448496D01*
X21210438Y191448496D02*
X21115200Y191353258D01*
X21115200Y191353258D02*
X21067580Y191210401D01*
X21067580Y191210401D02*
X21067580Y191115163D01*
X21067580Y191115163D02*
X21115200Y190972306D01*
X21115200Y190972306D02*
X21162819Y190924687D01*
X21162819Y190924687D02*
X21496152Y190924687D01*
X21496152Y190924687D02*
X21496152Y191115163D01*
X21067580Y189924687D02*
X21543771Y190258020D01*
X21067580Y190496115D02*
X22067580Y190496115D01*
X22067580Y190496115D02*
X22067580Y190115163D01*
X22067580Y190115163D02*
X22019961Y190019925D01*
X22019961Y190019925D02*
X21972342Y189972306D01*
X21972342Y189972306D02*
X21877104Y189924687D01*
X21877104Y189924687D02*
X21734247Y189924687D01*
X21734247Y189924687D02*
X21639009Y189972306D01*
X21639009Y189972306D02*
X21591390Y190019925D01*
X21591390Y190019925D02*
X21543771Y190115163D01*
X21543771Y190115163D02*
X21543771Y190496115D01*
X21067580Y189496115D02*
X22067580Y189496115D01*
X22067580Y189496115D02*
X21067580Y188924687D01*
X21067580Y188924687D02*
X22067580Y188924687D01*
X15867580Y190724687D02*
X16343771Y191058020D01*
X15867580Y191296115D02*
X16867580Y191296115D01*
X16867580Y191296115D02*
X16867580Y190915163D01*
X16867580Y190915163D02*
X16819961Y190819925D01*
X16819961Y190819925D02*
X16772342Y190772306D01*
X16772342Y190772306D02*
X16677104Y190724687D01*
X16677104Y190724687D02*
X16534247Y190724687D01*
X16534247Y190724687D02*
X16439009Y190772306D01*
X16439009Y190772306D02*
X16391390Y190819925D01*
X16391390Y190819925D02*
X16343771Y190915163D01*
X16343771Y190915163D02*
X16343771Y191296115D01*
X16391390Y190296115D02*
X16391390Y189962782D01*
X15867580Y189819925D02*
X15867580Y190296115D01*
X15867580Y190296115D02*
X16867580Y190296115D01*
X16867580Y190296115D02*
X16867580Y189819925D01*
X15867580Y189391353D02*
X16867580Y189391353D01*
X16867580Y189391353D02*
X16867580Y189153258D01*
X16867580Y189153258D02*
X16819961Y189010401D01*
X16819961Y189010401D02*
X16724723Y188915163D01*
X16724723Y188915163D02*
X16629485Y188867544D01*
X16629485Y188867544D02*
X16439009Y188819925D01*
X16439009Y188819925D02*
X16296152Y188819925D01*
X16296152Y188819925D02*
X16105676Y188867544D01*
X16105676Y188867544D02*
X16010438Y188915163D01*
X16010438Y188915163D02*
X15915200Y189010401D01*
X15915200Y189010401D02*
X15867580Y189153258D01*
X15867580Y189153258D02*
X15867580Y189391353D01*
X15227693Y183679961D02*
X15132455Y183727580D01*
X15132455Y183727580D02*
X14989598Y183727580D01*
X14989598Y183727580D02*
X14846741Y183679961D01*
X14846741Y183679961D02*
X14751503Y183584723D01*
X14751503Y183584723D02*
X14703884Y183489485D01*
X14703884Y183489485D02*
X14656265Y183299009D01*
X14656265Y183299009D02*
X14656265Y183156152D01*
X14656265Y183156152D02*
X14703884Y182965676D01*
X14703884Y182965676D02*
X14751503Y182870438D01*
X14751503Y182870438D02*
X14846741Y182775200D01*
X14846741Y182775200D02*
X14989598Y182727580D01*
X14989598Y182727580D02*
X15084836Y182727580D01*
X15084836Y182727580D02*
X15227693Y182775200D01*
X15227693Y182775200D02*
X15275312Y182822819D01*
X15275312Y182822819D02*
X15275312Y183156152D01*
X15275312Y183156152D02*
X15084836Y183156152D01*
X15703884Y182727580D02*
X15703884Y183727580D01*
X15703884Y183727580D02*
X16275312Y182727580D01*
X16275312Y182727580D02*
X16275312Y183727580D01*
X16751503Y182727580D02*
X16751503Y183727580D01*
X16751503Y183727580D02*
X16989598Y183727580D01*
X16989598Y183727580D02*
X17132455Y183679961D01*
X17132455Y183679961D02*
X17227693Y183584723D01*
X17227693Y183584723D02*
X17275312Y183489485D01*
X17275312Y183489485D02*
X17322931Y183299009D01*
X17322931Y183299009D02*
X17322931Y183156152D01*
X17322931Y183156152D02*
X17275312Y182965676D01*
X17275312Y182965676D02*
X17227693Y182870438D01*
X17227693Y182870438D02*
X17132455Y182775200D01*
X17132455Y182775200D02*
X16989598Y182727580D01*
X16989598Y182727580D02*
X16751503Y182727580D01*
X14703884Y185127580D02*
X14703884Y186127580D01*
X14703884Y186127580D02*
X15084836Y186127580D01*
X15084836Y186127580D02*
X15180074Y186079961D01*
X15180074Y186079961D02*
X15227693Y186032342D01*
X15227693Y186032342D02*
X15275312Y185937104D01*
X15275312Y185937104D02*
X15275312Y185794247D01*
X15275312Y185794247D02*
X15227693Y185699009D01*
X15227693Y185699009D02*
X15180074Y185651390D01*
X15180074Y185651390D02*
X15084836Y185603771D01*
X15084836Y185603771D02*
X14703884Y185603771D01*
X15846741Y185127580D02*
X15751503Y185175200D01*
X15751503Y185175200D02*
X15703884Y185222819D01*
X15703884Y185222819D02*
X15656265Y185318057D01*
X15656265Y185318057D02*
X15656265Y185603771D01*
X15656265Y185603771D02*
X15703884Y185699009D01*
X15703884Y185699009D02*
X15751503Y185746628D01*
X15751503Y185746628D02*
X15846741Y185794247D01*
X15846741Y185794247D02*
X15989598Y185794247D01*
X15989598Y185794247D02*
X16084836Y185746628D01*
X16084836Y185746628D02*
X16132455Y185699009D01*
X16132455Y185699009D02*
X16180074Y185603771D01*
X16180074Y185603771D02*
X16180074Y185318057D01*
X16180074Y185318057D02*
X16132455Y185222819D01*
X16132455Y185222819D02*
X16084836Y185175200D01*
X16084836Y185175200D02*
X15989598Y185127580D01*
X15989598Y185127580D02*
X15846741Y185127580D01*
X16513408Y185794247D02*
X16703884Y185127580D01*
X16703884Y185127580D02*
X16894360Y185603771D01*
X16894360Y185603771D02*
X17084836Y185127580D01*
X17084836Y185127580D02*
X17275312Y185794247D01*
X18037217Y185175200D02*
X17941979Y185127580D01*
X17941979Y185127580D02*
X17751503Y185127580D01*
X17751503Y185127580D02*
X17656265Y185175200D01*
X17656265Y185175200D02*
X17608646Y185270438D01*
X17608646Y185270438D02*
X17608646Y185651390D01*
X17608646Y185651390D02*
X17656265Y185746628D01*
X17656265Y185746628D02*
X17751503Y185794247D01*
X17751503Y185794247D02*
X17941979Y185794247D01*
X17941979Y185794247D02*
X18037217Y185746628D01*
X18037217Y185746628D02*
X18084836Y185651390D01*
X18084836Y185651390D02*
X18084836Y185556152D01*
X18084836Y185556152D02*
X17608646Y185460914D01*
X18513408Y185127580D02*
X18513408Y185794247D01*
X18513408Y185603771D02*
X18561027Y185699009D01*
X18561027Y185699009D02*
X18608646Y185746628D01*
X18608646Y185746628D02*
X18703884Y185794247D01*
X18703884Y185794247D02*
X18799122Y185794247D01*
X14856265Y177775200D02*
X14999122Y177727580D01*
X14999122Y177727580D02*
X15237217Y177727580D01*
X15237217Y177727580D02*
X15332455Y177775200D01*
X15332455Y177775200D02*
X15380074Y177822819D01*
X15380074Y177822819D02*
X15427693Y177918057D01*
X15427693Y177918057D02*
X15427693Y178013295D01*
X15427693Y178013295D02*
X15380074Y178108533D01*
X15380074Y178108533D02*
X15332455Y178156152D01*
X15332455Y178156152D02*
X15237217Y178203771D01*
X15237217Y178203771D02*
X15046741Y178251390D01*
X15046741Y178251390D02*
X14951503Y178299009D01*
X14951503Y178299009D02*
X14903884Y178346628D01*
X14903884Y178346628D02*
X14856265Y178441866D01*
X14856265Y178441866D02*
X14856265Y178537104D01*
X14856265Y178537104D02*
X14903884Y178632342D01*
X14903884Y178632342D02*
X14951503Y178679961D01*
X14951503Y178679961D02*
X15046741Y178727580D01*
X15046741Y178727580D02*
X15284836Y178727580D01*
X15284836Y178727580D02*
X15427693Y178679961D01*
X15856265Y177727580D02*
X15856265Y178727580D01*
X15856265Y178727580D02*
X16094360Y178727580D01*
X16094360Y178727580D02*
X16237217Y178679961D01*
X16237217Y178679961D02*
X16332455Y178584723D01*
X16332455Y178584723D02*
X16380074Y178489485D01*
X16380074Y178489485D02*
X16427693Y178299009D01*
X16427693Y178299009D02*
X16427693Y178156152D01*
X16427693Y178156152D02*
X16380074Y177965676D01*
X16380074Y177965676D02*
X16332455Y177870438D01*
X16332455Y177870438D02*
X16237217Y177775200D01*
X16237217Y177775200D02*
X16094360Y177727580D01*
X16094360Y177727580D02*
X15856265Y177727580D01*
X16808646Y178013295D02*
X17284836Y178013295D01*
X16713408Y177727580D02*
X17046741Y178727580D01*
X17046741Y178727580D02*
X17380074Y177727580D01*
X14856265Y180175200D02*
X14999122Y180127580D01*
X14999122Y180127580D02*
X15237217Y180127580D01*
X15237217Y180127580D02*
X15332455Y180175200D01*
X15332455Y180175200D02*
X15380074Y180222819D01*
X15380074Y180222819D02*
X15427693Y180318057D01*
X15427693Y180318057D02*
X15427693Y180413295D01*
X15427693Y180413295D02*
X15380074Y180508533D01*
X15380074Y180508533D02*
X15332455Y180556152D01*
X15332455Y180556152D02*
X15237217Y180603771D01*
X15237217Y180603771D02*
X15046741Y180651390D01*
X15046741Y180651390D02*
X14951503Y180699009D01*
X14951503Y180699009D02*
X14903884Y180746628D01*
X14903884Y180746628D02*
X14856265Y180841866D01*
X14856265Y180841866D02*
X14856265Y180937104D01*
X14856265Y180937104D02*
X14903884Y181032342D01*
X14903884Y181032342D02*
X14951503Y181079961D01*
X14951503Y181079961D02*
X15046741Y181127580D01*
X15046741Y181127580D02*
X15284836Y181127580D01*
X15284836Y181127580D02*
X15427693Y181079961D01*
X16427693Y180222819D02*
X16380074Y180175200D01*
X16380074Y180175200D02*
X16237217Y180127580D01*
X16237217Y180127580D02*
X16141979Y180127580D01*
X16141979Y180127580D02*
X15999122Y180175200D01*
X15999122Y180175200D02*
X15903884Y180270438D01*
X15903884Y180270438D02*
X15856265Y180365676D01*
X15856265Y180365676D02*
X15808646Y180556152D01*
X15808646Y180556152D02*
X15808646Y180699009D01*
X15808646Y180699009D02*
X15856265Y180889485D01*
X15856265Y180889485D02*
X15903884Y180984723D01*
X15903884Y180984723D02*
X15999122Y181079961D01*
X15999122Y181079961D02*
X16141979Y181127580D01*
X16141979Y181127580D02*
X16237217Y181127580D01*
X16237217Y181127580D02*
X16380074Y181079961D01*
X16380074Y181079961D02*
X16427693Y181032342D01*
X17332455Y180127580D02*
X16856265Y180127580D01*
X16856265Y180127580D02*
X16856265Y181127580D01*
X7837217Y46251390D02*
X7980074Y46203771D01*
X7980074Y46203771D02*
X8027693Y46156152D01*
X8027693Y46156152D02*
X8075312Y46060914D01*
X8075312Y46060914D02*
X8075312Y45918057D01*
X8075312Y45918057D02*
X8027693Y45822819D01*
X8027693Y45822819D02*
X7980074Y45775200D01*
X7980074Y45775200D02*
X7884836Y45727580D01*
X7884836Y45727580D02*
X7503884Y45727580D01*
X7503884Y45727580D02*
X7503884Y46727580D01*
X7503884Y46727580D02*
X7837217Y46727580D01*
X7837217Y46727580D02*
X7932455Y46679961D01*
X7932455Y46679961D02*
X7980074Y46632342D01*
X7980074Y46632342D02*
X8027693Y46537104D01*
X8027693Y46537104D02*
X8027693Y46441866D01*
X8027693Y46441866D02*
X7980074Y46346628D01*
X7980074Y46346628D02*
X7932455Y46299009D01*
X7932455Y46299009D02*
X7837217Y46251390D01*
X7837217Y46251390D02*
X7503884Y46251390D01*
X8980074Y45727580D02*
X8503884Y45727580D01*
X8503884Y45727580D02*
X8503884Y46727580D01*
X9313408Y46727580D02*
X9313408Y45918057D01*
X9313408Y45918057D02*
X9361027Y45822819D01*
X9361027Y45822819D02*
X9408646Y45775200D01*
X9408646Y45775200D02*
X9503884Y45727580D01*
X9503884Y45727580D02*
X9694360Y45727580D01*
X9694360Y45727580D02*
X9789598Y45775200D01*
X9789598Y45775200D02*
X9837217Y45822819D01*
X9837217Y45822819D02*
X9884836Y45918057D01*
X9884836Y45918057D02*
X9884836Y46727580D01*
X10361027Y46251390D02*
X10694360Y46251390D01*
X10837217Y45727580D02*
X10361027Y45727580D01*
X10361027Y45727580D02*
X10361027Y46727580D01*
X10361027Y46727580D02*
X10837217Y46727580D01*
X8027693Y49279961D02*
X7932455Y49327580D01*
X7932455Y49327580D02*
X7789598Y49327580D01*
X7789598Y49327580D02*
X7646741Y49279961D01*
X7646741Y49279961D02*
X7551503Y49184723D01*
X7551503Y49184723D02*
X7503884Y49089485D01*
X7503884Y49089485D02*
X7456265Y48899009D01*
X7456265Y48899009D02*
X7456265Y48756152D01*
X7456265Y48756152D02*
X7503884Y48565676D01*
X7503884Y48565676D02*
X7551503Y48470438D01*
X7551503Y48470438D02*
X7646741Y48375200D01*
X7646741Y48375200D02*
X7789598Y48327580D01*
X7789598Y48327580D02*
X7884836Y48327580D01*
X7884836Y48327580D02*
X8027693Y48375200D01*
X8027693Y48375200D02*
X8075312Y48422819D01*
X8075312Y48422819D02*
X8075312Y48756152D01*
X8075312Y48756152D02*
X7884836Y48756152D01*
X9075312Y48327580D02*
X8741979Y48803771D01*
X8503884Y48327580D02*
X8503884Y49327580D01*
X8503884Y49327580D02*
X8884836Y49327580D01*
X8884836Y49327580D02*
X8980074Y49279961D01*
X8980074Y49279961D02*
X9027693Y49232342D01*
X9027693Y49232342D02*
X9075312Y49137104D01*
X9075312Y49137104D02*
X9075312Y48994247D01*
X9075312Y48994247D02*
X9027693Y48899009D01*
X9027693Y48899009D02*
X8980074Y48851390D01*
X8980074Y48851390D02*
X8884836Y48803771D01*
X8884836Y48803771D02*
X8503884Y48803771D01*
X9503884Y48851390D02*
X9837217Y48851390D01*
X9980074Y48327580D02*
X9503884Y48327580D01*
X9503884Y48327580D02*
X9503884Y49327580D01*
X9503884Y49327580D02*
X9980074Y49327580D01*
X10408646Y48851390D02*
X10741979Y48851390D01*
X10884836Y48327580D02*
X10408646Y48327580D01*
X10408646Y48327580D02*
X10408646Y49327580D01*
X10408646Y49327580D02*
X10884836Y49327580D01*
X11313408Y48327580D02*
X11313408Y49327580D01*
X11313408Y49327580D02*
X11884836Y48327580D01*
X11884836Y48327580D02*
X11884836Y49327580D01*
X8075312Y50927580D02*
X7741979Y51403771D01*
X7503884Y50927580D02*
X7503884Y51927580D01*
X7503884Y51927580D02*
X7884836Y51927580D01*
X7884836Y51927580D02*
X7980074Y51879961D01*
X7980074Y51879961D02*
X8027693Y51832342D01*
X8027693Y51832342D02*
X8075312Y51737104D01*
X8075312Y51737104D02*
X8075312Y51594247D01*
X8075312Y51594247D02*
X8027693Y51499009D01*
X8027693Y51499009D02*
X7980074Y51451390D01*
X7980074Y51451390D02*
X7884836Y51403771D01*
X7884836Y51403771D02*
X7503884Y51403771D01*
X8503884Y51451390D02*
X8837217Y51451390D01*
X8980074Y50927580D02*
X8503884Y50927580D01*
X8503884Y50927580D02*
X8503884Y51927580D01*
X8503884Y51927580D02*
X8980074Y51927580D01*
X9408646Y50927580D02*
X9408646Y51927580D01*
X9408646Y51927580D02*
X9646741Y51927580D01*
X9646741Y51927580D02*
X9789598Y51879961D01*
X9789598Y51879961D02*
X9884836Y51784723D01*
X9884836Y51784723D02*
X9932455Y51689485D01*
X9932455Y51689485D02*
X9980074Y51499009D01*
X9980074Y51499009D02*
X9980074Y51356152D01*
X9980074Y51356152D02*
X9932455Y51165676D01*
X9932455Y51165676D02*
X9884836Y51070438D01*
X9884836Y51070438D02*
X9789598Y50975200D01*
X9789598Y50975200D02*
X9646741Y50927580D01*
X9646741Y50927580D02*
X9408646Y50927580D01*
X7703884Y33127580D02*
X7703884Y34127580D01*
X7703884Y34127580D02*
X8084836Y34127580D01*
X8084836Y34127580D02*
X8180074Y34079961D01*
X8180074Y34079961D02*
X8227693Y34032342D01*
X8227693Y34032342D02*
X8275312Y33937104D01*
X8275312Y33937104D02*
X8275312Y33794247D01*
X8275312Y33794247D02*
X8227693Y33699009D01*
X8227693Y33699009D02*
X8180074Y33651390D01*
X8180074Y33651390D02*
X8084836Y33603771D01*
X8084836Y33603771D02*
X7703884Y33603771D01*
X8846741Y33127580D02*
X8751503Y33175200D01*
X8751503Y33175200D02*
X8703884Y33222819D01*
X8703884Y33222819D02*
X8656265Y33318057D01*
X8656265Y33318057D02*
X8656265Y33603771D01*
X8656265Y33603771D02*
X8703884Y33699009D01*
X8703884Y33699009D02*
X8751503Y33746628D01*
X8751503Y33746628D02*
X8846741Y33794247D01*
X8846741Y33794247D02*
X8989598Y33794247D01*
X8989598Y33794247D02*
X9084836Y33746628D01*
X9084836Y33746628D02*
X9132455Y33699009D01*
X9132455Y33699009D02*
X9180074Y33603771D01*
X9180074Y33603771D02*
X9180074Y33318057D01*
X9180074Y33318057D02*
X9132455Y33222819D01*
X9132455Y33222819D02*
X9084836Y33175200D01*
X9084836Y33175200D02*
X8989598Y33127580D01*
X8989598Y33127580D02*
X8846741Y33127580D01*
X9513408Y33794247D02*
X9703884Y33127580D01*
X9703884Y33127580D02*
X9894360Y33603771D01*
X9894360Y33603771D02*
X10084836Y33127580D01*
X10084836Y33127580D02*
X10275312Y33794247D01*
X11037217Y33175200D02*
X10941979Y33127580D01*
X10941979Y33127580D02*
X10751503Y33127580D01*
X10751503Y33127580D02*
X10656265Y33175200D01*
X10656265Y33175200D02*
X10608646Y33270438D01*
X10608646Y33270438D02*
X10608646Y33651390D01*
X10608646Y33651390D02*
X10656265Y33746628D01*
X10656265Y33746628D02*
X10751503Y33794247D01*
X10751503Y33794247D02*
X10941979Y33794247D01*
X10941979Y33794247D02*
X11037217Y33746628D01*
X11037217Y33746628D02*
X11084836Y33651390D01*
X11084836Y33651390D02*
X11084836Y33556152D01*
X11084836Y33556152D02*
X10608646Y33460914D01*
X11513408Y33127580D02*
X11513408Y33794247D01*
X11513408Y33603771D02*
X11561027Y33699009D01*
X11561027Y33699009D02*
X11608646Y33746628D01*
X11608646Y33746628D02*
X11703884Y33794247D01*
X11703884Y33794247D02*
X11799122Y33794247D01*
X7503884Y53527580D02*
X7503884Y54527580D01*
X7503884Y54146628D02*
X7599122Y54194247D01*
X7599122Y54194247D02*
X7789598Y54194247D01*
X7789598Y54194247D02*
X7884836Y54146628D01*
X7884836Y54146628D02*
X7932455Y54099009D01*
X7932455Y54099009D02*
X7980074Y54003771D01*
X7980074Y54003771D02*
X7980074Y53718057D01*
X7980074Y53718057D02*
X7932455Y53622819D01*
X7932455Y53622819D02*
X7884836Y53575200D01*
X7884836Y53575200D02*
X7789598Y53527580D01*
X7789598Y53527580D02*
X7599122Y53527580D01*
X7599122Y53527580D02*
X7503884Y53575200D01*
X8265789Y54194247D02*
X8646741Y54194247D01*
X8408646Y54527580D02*
X8408646Y53670438D01*
X8408646Y53670438D02*
X8456265Y53575200D01*
X8456265Y53575200D02*
X8551503Y53527580D01*
X8551503Y53527580D02*
X8646741Y53527580D01*
X8980075Y54194247D02*
X8980075Y53527580D01*
X8980075Y54099009D02*
X9027694Y54146628D01*
X9027694Y54146628D02*
X9122932Y54194247D01*
X9122932Y54194247D02*
X9265789Y54194247D01*
X9265789Y54194247D02*
X9361027Y54146628D01*
X9361027Y54146628D02*
X9408646Y54051390D01*
X9408646Y54051390D02*
X9408646Y53527580D01*
X30427693Y36679961D02*
X30332455Y36727580D01*
X30332455Y36727580D02*
X30189598Y36727580D01*
X30189598Y36727580D02*
X30046741Y36679961D01*
X30046741Y36679961D02*
X29951503Y36584723D01*
X29951503Y36584723D02*
X29903884Y36489485D01*
X29903884Y36489485D02*
X29856265Y36299009D01*
X29856265Y36299009D02*
X29856265Y36156152D01*
X29856265Y36156152D02*
X29903884Y35965676D01*
X29903884Y35965676D02*
X29951503Y35870438D01*
X29951503Y35870438D02*
X30046741Y35775200D01*
X30046741Y35775200D02*
X30189598Y35727580D01*
X30189598Y35727580D02*
X30284836Y35727580D01*
X30284836Y35727580D02*
X30427693Y35775200D01*
X30427693Y35775200D02*
X30475312Y35822819D01*
X30475312Y35822819D02*
X30475312Y36156152D01*
X30475312Y36156152D02*
X30284836Y36156152D01*
X30903884Y35727580D02*
X30903884Y36727580D01*
X30903884Y36727580D02*
X31475312Y35727580D01*
X31475312Y35727580D02*
X31475312Y36727580D01*
X31951503Y35727580D02*
X31951503Y36727580D01*
X31951503Y36727580D02*
X32189598Y36727580D01*
X32189598Y36727580D02*
X32332455Y36679961D01*
X32332455Y36679961D02*
X32427693Y36584723D01*
X32427693Y36584723D02*
X32475312Y36489485D01*
X32475312Y36489485D02*
X32522931Y36299009D01*
X32522931Y36299009D02*
X32522931Y36156152D01*
X32522931Y36156152D02*
X32475312Y35965676D01*
X32475312Y35965676D02*
X32427693Y35870438D01*
X32427693Y35870438D02*
X32332455Y35775200D01*
X32332455Y35775200D02*
X32189598Y35727580D01*
X32189598Y35727580D02*
X31951503Y35727580D01*
X30056265Y58775200D02*
X30199122Y58727580D01*
X30199122Y58727580D02*
X30437217Y58727580D01*
X30437217Y58727580D02*
X30532455Y58775200D01*
X30532455Y58775200D02*
X30580074Y58822819D01*
X30580074Y58822819D02*
X30627693Y58918057D01*
X30627693Y58918057D02*
X30627693Y59013295D01*
X30627693Y59013295D02*
X30580074Y59108533D01*
X30580074Y59108533D02*
X30532455Y59156152D01*
X30532455Y59156152D02*
X30437217Y59203771D01*
X30437217Y59203771D02*
X30246741Y59251390D01*
X30246741Y59251390D02*
X30151503Y59299009D01*
X30151503Y59299009D02*
X30103884Y59346628D01*
X30103884Y59346628D02*
X30056265Y59441866D01*
X30056265Y59441866D02*
X30056265Y59537104D01*
X30056265Y59537104D02*
X30103884Y59632342D01*
X30103884Y59632342D02*
X30151503Y59679961D01*
X30151503Y59679961D02*
X30246741Y59727580D01*
X30246741Y59727580D02*
X30484836Y59727580D01*
X30484836Y59727580D02*
X30627693Y59679961D01*
X31056265Y58727580D02*
X31056265Y59727580D01*
X31056265Y59727580D02*
X31294360Y59727580D01*
X31294360Y59727580D02*
X31437217Y59679961D01*
X31437217Y59679961D02*
X31532455Y59584723D01*
X31532455Y59584723D02*
X31580074Y59489485D01*
X31580074Y59489485D02*
X31627693Y59299009D01*
X31627693Y59299009D02*
X31627693Y59156152D01*
X31627693Y59156152D02*
X31580074Y58965676D01*
X31580074Y58965676D02*
X31532455Y58870438D01*
X31532455Y58870438D02*
X31437217Y58775200D01*
X31437217Y58775200D02*
X31294360Y58727580D01*
X31294360Y58727580D02*
X31056265Y58727580D01*
X32008646Y59013295D02*
X32484836Y59013295D01*
X31913408Y58727580D02*
X32246741Y59727580D01*
X32246741Y59727580D02*
X32580074Y58727580D01*
X30056265Y66375200D02*
X30199122Y66327580D01*
X30199122Y66327580D02*
X30437217Y66327580D01*
X30437217Y66327580D02*
X30532455Y66375200D01*
X30532455Y66375200D02*
X30580074Y66422819D01*
X30580074Y66422819D02*
X30627693Y66518057D01*
X30627693Y66518057D02*
X30627693Y66613295D01*
X30627693Y66613295D02*
X30580074Y66708533D01*
X30580074Y66708533D02*
X30532455Y66756152D01*
X30532455Y66756152D02*
X30437217Y66803771D01*
X30437217Y66803771D02*
X30246741Y66851390D01*
X30246741Y66851390D02*
X30151503Y66899009D01*
X30151503Y66899009D02*
X30103884Y66946628D01*
X30103884Y66946628D02*
X30056265Y67041866D01*
X30056265Y67041866D02*
X30056265Y67137104D01*
X30056265Y67137104D02*
X30103884Y67232342D01*
X30103884Y67232342D02*
X30151503Y67279961D01*
X30151503Y67279961D02*
X30246741Y67327580D01*
X30246741Y67327580D02*
X30484836Y67327580D01*
X30484836Y67327580D02*
X30627693Y67279961D01*
X31627693Y66422819D02*
X31580074Y66375200D01*
X31580074Y66375200D02*
X31437217Y66327580D01*
X31437217Y66327580D02*
X31341979Y66327580D01*
X31341979Y66327580D02*
X31199122Y66375200D01*
X31199122Y66375200D02*
X31103884Y66470438D01*
X31103884Y66470438D02*
X31056265Y66565676D01*
X31056265Y66565676D02*
X31008646Y66756152D01*
X31008646Y66756152D02*
X31008646Y66899009D01*
X31008646Y66899009D02*
X31056265Y67089485D01*
X31056265Y67089485D02*
X31103884Y67184723D01*
X31103884Y67184723D02*
X31199122Y67279961D01*
X31199122Y67279961D02*
X31341979Y67327580D01*
X31341979Y67327580D02*
X31437217Y67327580D01*
X31437217Y67327580D02*
X31580074Y67279961D01*
X31580074Y67279961D02*
X31627693Y67232342D01*
X32532455Y66327580D02*
X32056265Y66327580D01*
X32056265Y66327580D02*
X32056265Y67327580D01*
X17303884Y102427580D02*
X17303884Y103427580D01*
X17303884Y103427580D02*
X17541979Y103427580D01*
X17541979Y103427580D02*
X17684836Y103379961D01*
X17684836Y103379961D02*
X17780074Y103284723D01*
X17780074Y103284723D02*
X17827693Y103189485D01*
X17827693Y103189485D02*
X17875312Y102999009D01*
X17875312Y102999009D02*
X17875312Y102856152D01*
X17875312Y102856152D02*
X17827693Y102665676D01*
X17827693Y102665676D02*
X17780074Y102570438D01*
X17780074Y102570438D02*
X17684836Y102475200D01*
X17684836Y102475200D02*
X17541979Y102427580D01*
X17541979Y102427580D02*
X17303884Y102427580D01*
X18875312Y102522819D02*
X18827693Y102475200D01*
X18827693Y102475200D02*
X18684836Y102427580D01*
X18684836Y102427580D02*
X18589598Y102427580D01*
X18589598Y102427580D02*
X18446741Y102475200D01*
X18446741Y102475200D02*
X18351503Y102570438D01*
X18351503Y102570438D02*
X18303884Y102665676D01*
X18303884Y102665676D02*
X18256265Y102856152D01*
X18256265Y102856152D02*
X18256265Y102999009D01*
X18256265Y102999009D02*
X18303884Y103189485D01*
X18303884Y103189485D02*
X18351503Y103284723D01*
X18351503Y103284723D02*
X18446741Y103379961D01*
X18446741Y103379961D02*
X18589598Y103427580D01*
X18589598Y103427580D02*
X18684836Y103427580D01*
X18684836Y103427580D02*
X18827693Y103379961D01*
X18827693Y103379961D02*
X18875312Y103332342D01*
X20065789Y102427580D02*
X20065789Y103427580D01*
X20065789Y103427580D02*
X20399122Y102713295D01*
X20399122Y102713295D02*
X20732455Y103427580D01*
X20732455Y103427580D02*
X20732455Y102427580D01*
X21351503Y102427580D02*
X21256265Y102475200D01*
X21256265Y102475200D02*
X21208646Y102522819D01*
X21208646Y102522819D02*
X21161027Y102618057D01*
X21161027Y102618057D02*
X21161027Y102903771D01*
X21161027Y102903771D02*
X21208646Y102999009D01*
X21208646Y102999009D02*
X21256265Y103046628D01*
X21256265Y103046628D02*
X21351503Y103094247D01*
X21351503Y103094247D02*
X21494360Y103094247D01*
X21494360Y103094247D02*
X21589598Y103046628D01*
X21589598Y103046628D02*
X21637217Y102999009D01*
X21637217Y102999009D02*
X21684836Y102903771D01*
X21684836Y102903771D02*
X21684836Y102618057D01*
X21684836Y102618057D02*
X21637217Y102522819D01*
X21637217Y102522819D02*
X21589598Y102475200D01*
X21589598Y102475200D02*
X21494360Y102427580D01*
X21494360Y102427580D02*
X21351503Y102427580D01*
X21970551Y103094247D02*
X22351503Y103094247D01*
X22113408Y103427580D02*
X22113408Y102570438D01*
X22113408Y102570438D02*
X22161027Y102475200D01*
X22161027Y102475200D02*
X22256265Y102427580D01*
X22256265Y102427580D02*
X22351503Y102427580D01*
X22827694Y102427580D02*
X22732456Y102475200D01*
X22732456Y102475200D02*
X22684837Y102522819D01*
X22684837Y102522819D02*
X22637218Y102618057D01*
X22637218Y102618057D02*
X22637218Y102903771D01*
X22637218Y102903771D02*
X22684837Y102999009D01*
X22684837Y102999009D02*
X22732456Y103046628D01*
X22732456Y103046628D02*
X22827694Y103094247D01*
X22827694Y103094247D02*
X22970551Y103094247D01*
X22970551Y103094247D02*
X23065789Y103046628D01*
X23065789Y103046628D02*
X23113408Y102999009D01*
X23113408Y102999009D02*
X23161027Y102903771D01*
X23161027Y102903771D02*
X23161027Y102618057D01*
X23161027Y102618057D02*
X23113408Y102522819D01*
X23113408Y102522819D02*
X23065789Y102475200D01*
X23065789Y102475200D02*
X22970551Y102427580D01*
X22970551Y102427580D02*
X22827694Y102427580D01*
X23589599Y102427580D02*
X23589599Y103094247D01*
X23589599Y102903771D02*
X23637218Y102999009D01*
X23637218Y102999009D02*
X23684837Y103046628D01*
X23684837Y103046628D02*
X23780075Y103094247D01*
X23780075Y103094247D02*
X23875313Y103094247D01*
X17303884Y175327580D02*
X17303884Y176327580D01*
X17303884Y176327580D02*
X17637217Y175613295D01*
X17637217Y175613295D02*
X17970550Y176327580D01*
X17970550Y176327580D02*
X17970550Y175327580D01*
X18446741Y175327580D02*
X18446741Y176327580D01*
X18446741Y176327580D02*
X18827693Y176327580D01*
X18827693Y176327580D02*
X18922931Y176279961D01*
X18922931Y176279961D02*
X18970550Y176232342D01*
X18970550Y176232342D02*
X19018169Y176137104D01*
X19018169Y176137104D02*
X19018169Y175994247D01*
X19018169Y175994247D02*
X18970550Y175899009D01*
X18970550Y175899009D02*
X18922931Y175851390D01*
X18922931Y175851390D02*
X18827693Y175803771D01*
X18827693Y175803771D02*
X18446741Y175803771D01*
X19446741Y176327580D02*
X19446741Y175518057D01*
X19446741Y175518057D02*
X19494360Y175422819D01*
X19494360Y175422819D02*
X19541979Y175375200D01*
X19541979Y175375200D02*
X19637217Y175327580D01*
X19637217Y175327580D02*
X19827693Y175327580D01*
X19827693Y175327580D02*
X19922931Y175375200D01*
X19922931Y175375200D02*
X19970550Y175422819D01*
X19970550Y175422819D02*
X20018169Y175518057D01*
X20018169Y175518057D02*
X20018169Y176327580D01*
X20922931Y176327580D02*
X20732455Y176327580D01*
X20732455Y176327580D02*
X20637217Y176279961D01*
X20637217Y176279961D02*
X20589598Y176232342D01*
X20589598Y176232342D02*
X20494360Y176089485D01*
X20494360Y176089485D02*
X20446741Y175899009D01*
X20446741Y175899009D02*
X20446741Y175518057D01*
X20446741Y175518057D02*
X20494360Y175422819D01*
X20494360Y175422819D02*
X20541979Y175375200D01*
X20541979Y175375200D02*
X20637217Y175327580D01*
X20637217Y175327580D02*
X20827693Y175327580D01*
X20827693Y175327580D02*
X20922931Y175375200D01*
X20922931Y175375200D02*
X20970550Y175422819D01*
X20970550Y175422819D02*
X21018169Y175518057D01*
X21018169Y175518057D02*
X21018169Y175756152D01*
X21018169Y175756152D02*
X20970550Y175851390D01*
X20970550Y175851390D02*
X20922931Y175899009D01*
X20922931Y175899009D02*
X20827693Y175946628D01*
X20827693Y175946628D02*
X20637217Y175946628D01*
X20637217Y175946628D02*
X20541979Y175899009D01*
X20541979Y175899009D02*
X20494360Y175851390D01*
X20494360Y175851390D02*
X20446741Y175756152D01*
X21637217Y176327580D02*
X21732455Y176327580D01*
X21732455Y176327580D02*
X21827693Y176279961D01*
X21827693Y176279961D02*
X21875312Y176232342D01*
X21875312Y176232342D02*
X21922931Y176137104D01*
X21922931Y176137104D02*
X21970550Y175946628D01*
X21970550Y175946628D02*
X21970550Y175708533D01*
X21970550Y175708533D02*
X21922931Y175518057D01*
X21922931Y175518057D02*
X21875312Y175422819D01*
X21875312Y175422819D02*
X21827693Y175375200D01*
X21827693Y175375200D02*
X21732455Y175327580D01*
X21732455Y175327580D02*
X21637217Y175327580D01*
X21637217Y175327580D02*
X21541979Y175375200D01*
X21541979Y175375200D02*
X21494360Y175422819D01*
X21494360Y175422819D02*
X21446741Y175518057D01*
X21446741Y175518057D02*
X21399122Y175708533D01*
X21399122Y175708533D02*
X21399122Y175946628D01*
X21399122Y175946628D02*
X21446741Y176137104D01*
X21446741Y176137104D02*
X21494360Y176232342D01*
X21494360Y176232342D02*
X21541979Y176279961D01*
X21541979Y176279961D02*
X21637217Y176327580D01*
X22875312Y176327580D02*
X22399122Y176327580D01*
X22399122Y176327580D02*
X22351503Y175851390D01*
X22351503Y175851390D02*
X22399122Y175899009D01*
X22399122Y175899009D02*
X22494360Y175946628D01*
X22494360Y175946628D02*
X22732455Y175946628D01*
X22732455Y175946628D02*
X22827693Y175899009D01*
X22827693Y175899009D02*
X22875312Y175851390D01*
X22875312Y175851390D02*
X22922931Y175756152D01*
X22922931Y175756152D02*
X22922931Y175518057D01*
X22922931Y175518057D02*
X22875312Y175422819D01*
X22875312Y175422819D02*
X22827693Y175375200D01*
X22827693Y175375200D02*
X22732455Y175327580D01*
X22732455Y175327580D02*
X22494360Y175327580D01*
X22494360Y175327580D02*
X22399122Y175375200D01*
X22399122Y175375200D02*
X22351503Y175422819D01*
X23541979Y176327580D02*
X23637217Y176327580D01*
X23637217Y176327580D02*
X23732455Y176279961D01*
X23732455Y176279961D02*
X23780074Y176232342D01*
X23780074Y176232342D02*
X23827693Y176137104D01*
X23827693Y176137104D02*
X23875312Y175946628D01*
X23875312Y175946628D02*
X23875312Y175708533D01*
X23875312Y175708533D02*
X23827693Y175518057D01*
X23827693Y175518057D02*
X23780074Y175422819D01*
X23780074Y175422819D02*
X23732455Y175375200D01*
X23732455Y175375200D02*
X23637217Y175327580D01*
X23637217Y175327580D02*
X23541979Y175327580D01*
X23541979Y175327580D02*
X23446741Y175375200D01*
X23446741Y175375200D02*
X23399122Y175422819D01*
X23399122Y175422819D02*
X23351503Y175518057D01*
X23351503Y175518057D02*
X23303884Y175708533D01*
X23303884Y175708533D02*
X23303884Y175946628D01*
X23303884Y175946628D02*
X23351503Y176137104D01*
X23351503Y176137104D02*
X23399122Y176232342D01*
X23399122Y176232342D02*
X23446741Y176279961D01*
X23446741Y176279961D02*
X23541979Y176327580D01*
X12903884Y42051390D02*
X13237217Y42051390D01*
X13380074Y41527580D02*
X12903884Y41527580D01*
X12903884Y41527580D02*
X12903884Y42527580D01*
X12903884Y42527580D02*
X13380074Y42527580D01*
X13761027Y41575200D02*
X13903884Y41527580D01*
X13903884Y41527580D02*
X14141979Y41527580D01*
X14141979Y41527580D02*
X14237217Y41575200D01*
X14237217Y41575200D02*
X14284836Y41622819D01*
X14284836Y41622819D02*
X14332455Y41718057D01*
X14332455Y41718057D02*
X14332455Y41813295D01*
X14332455Y41813295D02*
X14284836Y41908533D01*
X14284836Y41908533D02*
X14237217Y41956152D01*
X14237217Y41956152D02*
X14141979Y42003771D01*
X14141979Y42003771D02*
X13951503Y42051390D01*
X13951503Y42051390D02*
X13856265Y42099009D01*
X13856265Y42099009D02*
X13808646Y42146628D01*
X13808646Y42146628D02*
X13761027Y42241866D01*
X13761027Y42241866D02*
X13761027Y42337104D01*
X13761027Y42337104D02*
X13808646Y42432342D01*
X13808646Y42432342D02*
X13856265Y42479961D01*
X13856265Y42479961D02*
X13951503Y42527580D01*
X13951503Y42527580D02*
X14189598Y42527580D01*
X14189598Y42527580D02*
X14332455Y42479961D01*
X14761027Y41527580D02*
X14761027Y42527580D01*
X14761027Y42527580D02*
X15141979Y42527580D01*
X15141979Y42527580D02*
X15237217Y42479961D01*
X15237217Y42479961D02*
X15284836Y42432342D01*
X15284836Y42432342D02*
X15332455Y42337104D01*
X15332455Y42337104D02*
X15332455Y42194247D01*
X15332455Y42194247D02*
X15284836Y42099009D01*
X15284836Y42099009D02*
X15237217Y42051390D01*
X15237217Y42051390D02*
X15141979Y42003771D01*
X15141979Y42003771D02*
X14761027Y42003771D01*
X15665789Y42527580D02*
X16284836Y42527580D01*
X16284836Y42527580D02*
X15951503Y42146628D01*
X15951503Y42146628D02*
X16094360Y42146628D01*
X16094360Y42146628D02*
X16189598Y42099009D01*
X16189598Y42099009D02*
X16237217Y42051390D01*
X16237217Y42051390D02*
X16284836Y41956152D01*
X16284836Y41956152D02*
X16284836Y41718057D01*
X16284836Y41718057D02*
X16237217Y41622819D01*
X16237217Y41622819D02*
X16189598Y41575200D01*
X16189598Y41575200D02*
X16094360Y41527580D01*
X16094360Y41527580D02*
X15808646Y41527580D01*
X15808646Y41527580D02*
X15713408Y41575200D01*
X15713408Y41575200D02*
X15665789Y41622819D01*
X16665789Y42432342D02*
X16713408Y42479961D01*
X16713408Y42479961D02*
X16808646Y42527580D01*
X16808646Y42527580D02*
X17046741Y42527580D01*
X17046741Y42527580D02*
X17141979Y42479961D01*
X17141979Y42479961D02*
X17189598Y42432342D01*
X17189598Y42432342D02*
X17237217Y42337104D01*
X17237217Y42337104D02*
X17237217Y42241866D01*
X17237217Y42241866D02*
X17189598Y42099009D01*
X17189598Y42099009D02*
X16618170Y41527580D01*
X16618170Y41527580D02*
X17237217Y41527580D01*
X17427694Y41432342D02*
X18189598Y41432342D01*
X18427694Y41527580D02*
X18427694Y42194247D01*
X18427694Y42527580D02*
X18380075Y42479961D01*
X18380075Y42479961D02*
X18427694Y42432342D01*
X18427694Y42432342D02*
X18475313Y42479961D01*
X18475313Y42479961D02*
X18427694Y42527580D01*
X18427694Y42527580D02*
X18427694Y42432342D01*
X19332455Y41527580D02*
X19332455Y42527580D01*
X19332455Y41575200D02*
X19237217Y41527580D01*
X19237217Y41527580D02*
X19046741Y41527580D01*
X19046741Y41527580D02*
X18951503Y41575200D01*
X18951503Y41575200D02*
X18903884Y41622819D01*
X18903884Y41622819D02*
X18856265Y41718057D01*
X18856265Y41718057D02*
X18856265Y42003771D01*
X18856265Y42003771D02*
X18903884Y42099009D01*
X18903884Y42099009D02*
X18951503Y42146628D01*
X18951503Y42146628D02*
X19046741Y42194247D01*
X19046741Y42194247D02*
X19237217Y42194247D01*
X19237217Y42194247D02*
X19332455Y42146628D01*
X20189598Y41575200D02*
X20094360Y41527580D01*
X20094360Y41527580D02*
X19903884Y41527580D01*
X19903884Y41527580D02*
X19808646Y41575200D01*
X19808646Y41575200D02*
X19761027Y41670438D01*
X19761027Y41670438D02*
X19761027Y42051390D01*
X19761027Y42051390D02*
X19808646Y42146628D01*
X19808646Y42146628D02*
X19903884Y42194247D01*
X19903884Y42194247D02*
X20094360Y42194247D01*
X20094360Y42194247D02*
X20189598Y42146628D01*
X20189598Y42146628D02*
X20237217Y42051390D01*
X20237217Y42051390D02*
X20237217Y41956152D01*
X20237217Y41956152D02*
X19761027Y41860914D01*
X21094360Y41527580D02*
X21094360Y42051390D01*
X21094360Y42051390D02*
X21046741Y42146628D01*
X21046741Y42146628D02*
X20951503Y42194247D01*
X20951503Y42194247D02*
X20761027Y42194247D01*
X20761027Y42194247D02*
X20665789Y42146628D01*
X21094360Y41575200D02*
X20999122Y41527580D01*
X20999122Y41527580D02*
X20761027Y41527580D01*
X20761027Y41527580D02*
X20665789Y41575200D01*
X20665789Y41575200D02*
X20618170Y41670438D01*
X20618170Y41670438D02*
X20618170Y41765676D01*
X20618170Y41765676D02*
X20665789Y41860914D01*
X20665789Y41860914D02*
X20761027Y41908533D01*
X20761027Y41908533D02*
X20999122Y41908533D01*
X20999122Y41908533D02*
X21094360Y41956152D01*
X21522932Y41575200D02*
X21618170Y41527580D01*
X21618170Y41527580D02*
X21808646Y41527580D01*
X21808646Y41527580D02*
X21903884Y41575200D01*
X21903884Y41575200D02*
X21951503Y41670438D01*
X21951503Y41670438D02*
X21951503Y41718057D01*
X21951503Y41718057D02*
X21903884Y41813295D01*
X21903884Y41813295D02*
X21808646Y41860914D01*
X21808646Y41860914D02*
X21665789Y41860914D01*
X21665789Y41860914D02*
X21570551Y41908533D01*
X21570551Y41908533D02*
X21522932Y42003771D01*
X21522932Y42003771D02*
X21522932Y42051390D01*
X21522932Y42051390D02*
X21570551Y42146628D01*
X21570551Y42146628D02*
X21665789Y42194247D01*
X21665789Y42194247D02*
X21808646Y42194247D01*
X21808646Y42194247D02*
X21903884Y42146628D01*
X22380075Y42194247D02*
X22380075Y41194247D01*
X22380075Y42146628D02*
X22475313Y42194247D01*
X22475313Y42194247D02*
X22665789Y42194247D01*
X22665789Y42194247D02*
X22761027Y42146628D01*
X22761027Y42146628D02*
X22808646Y42099009D01*
X22808646Y42099009D02*
X22856265Y42003771D01*
X22856265Y42003771D02*
X22856265Y41718057D01*
X22856265Y41718057D02*
X22808646Y41622819D01*
X22808646Y41622819D02*
X22761027Y41575200D01*
X22761027Y41575200D02*
X22665789Y41527580D01*
X22665789Y41527580D02*
X22475313Y41527580D01*
X22475313Y41527580D02*
X22380075Y41575200D01*
X23713408Y41527580D02*
X23713408Y42051390D01*
X23713408Y42051390D02*
X23665789Y42146628D01*
X23665789Y42146628D02*
X23570551Y42194247D01*
X23570551Y42194247D02*
X23380075Y42194247D01*
X23380075Y42194247D02*
X23284837Y42146628D01*
X23713408Y41575200D02*
X23618170Y41527580D01*
X23618170Y41527580D02*
X23380075Y41527580D01*
X23380075Y41527580D02*
X23284837Y41575200D01*
X23284837Y41575200D02*
X23237218Y41670438D01*
X23237218Y41670438D02*
X23237218Y41765676D01*
X23237218Y41765676D02*
X23284837Y41860914D01*
X23284837Y41860914D02*
X23380075Y41908533D01*
X23380075Y41908533D02*
X23618170Y41908533D01*
X23618170Y41908533D02*
X23713408Y41956152D01*
X24189599Y41527580D02*
X24189599Y42194247D01*
X24189599Y42003771D02*
X24237218Y42099009D01*
X24237218Y42099009D02*
X24284837Y42146628D01*
X24284837Y42146628D02*
X24380075Y42194247D01*
X24380075Y42194247D02*
X24475313Y42194247D01*
X24808647Y41527580D02*
X24808647Y42527580D01*
X24903885Y41908533D02*
X25189599Y41527580D01*
X25189599Y42194247D02*
X24808647Y41813295D01*
X25380076Y41432342D02*
X26141980Y41432342D01*
X26522933Y41527580D02*
X26427695Y41575200D01*
X26427695Y41575200D02*
X26380076Y41670438D01*
X26380076Y41670438D02*
X26380076Y42527580D01*
X27332457Y41575200D02*
X27237219Y41527580D01*
X27237219Y41527580D02*
X27046743Y41527580D01*
X27046743Y41527580D02*
X26951505Y41575200D01*
X26951505Y41575200D02*
X26903886Y41622819D01*
X26903886Y41622819D02*
X26856267Y41718057D01*
X26856267Y41718057D02*
X26856267Y42003771D01*
X26856267Y42003771D02*
X26903886Y42099009D01*
X26903886Y42099009D02*
X26951505Y42146628D01*
X26951505Y42146628D02*
X27046743Y42194247D01*
X27046743Y42194247D02*
X27237219Y42194247D01*
X27237219Y42194247D02*
X27332457Y42146628D01*
X28189600Y41527580D02*
X28189600Y42527580D01*
X28189600Y41575200D02*
X28094362Y41527580D01*
X28094362Y41527580D02*
X27903886Y41527580D01*
X27903886Y41527580D02*
X27808648Y41575200D01*
X27808648Y41575200D02*
X27761029Y41622819D01*
X27761029Y41622819D02*
X27713410Y41718057D01*
X27713410Y41718057D02*
X27713410Y42003771D01*
X27713410Y42003771D02*
X27761029Y42099009D01*
X27761029Y42099009D02*
X27808648Y42146628D01*
X27808648Y42146628D02*
X27903886Y42194247D01*
X27903886Y42194247D02*
X28094362Y42194247D01*
X28094362Y42194247D02*
X28189600Y42146628D01*
X4547619Y15342580D02*
X4547619Y16342580D01*
X4547619Y16342580D02*
X4928571Y16342580D01*
X4928571Y16342580D02*
X5023809Y16294961D01*
X5023809Y16294961D02*
X5071428Y16247342D01*
X5071428Y16247342D02*
X5119047Y16152104D01*
X5119047Y16152104D02*
X5119047Y16009247D01*
X5119047Y16009247D02*
X5071428Y15914009D01*
X5071428Y15914009D02*
X5023809Y15866390D01*
X5023809Y15866390D02*
X4928571Y15818771D01*
X4928571Y15818771D02*
X4547619Y15818771D01*
X5690476Y15342580D02*
X5595238Y15390200D01*
X5595238Y15390200D02*
X5547619Y15437819D01*
X5547619Y15437819D02*
X5500000Y15533057D01*
X5500000Y15533057D02*
X5500000Y15818771D01*
X5500000Y15818771D02*
X5547619Y15914009D01*
X5547619Y15914009D02*
X5595238Y15961628D01*
X5595238Y15961628D02*
X5690476Y16009247D01*
X5690476Y16009247D02*
X5833333Y16009247D01*
X5833333Y16009247D02*
X5928571Y15961628D01*
X5928571Y15961628D02*
X5976190Y15914009D01*
X5976190Y15914009D02*
X6023809Y15818771D01*
X6023809Y15818771D02*
X6023809Y15533057D01*
X6023809Y15533057D02*
X5976190Y15437819D01*
X5976190Y15437819D02*
X5928571Y15390200D01*
X5928571Y15390200D02*
X5833333Y15342580D01*
X5833333Y15342580D02*
X5690476Y15342580D01*
X6357143Y16009247D02*
X6547619Y15342580D01*
X6547619Y15342580D02*
X6738095Y15818771D01*
X6738095Y15818771D02*
X6928571Y15342580D01*
X6928571Y15342580D02*
X7119047Y16009247D01*
X7880952Y15390200D02*
X7785714Y15342580D01*
X7785714Y15342580D02*
X7595238Y15342580D01*
X7595238Y15342580D02*
X7500000Y15390200D01*
X7500000Y15390200D02*
X7452381Y15485438D01*
X7452381Y15485438D02*
X7452381Y15866390D01*
X7452381Y15866390D02*
X7500000Y15961628D01*
X7500000Y15961628D02*
X7595238Y16009247D01*
X7595238Y16009247D02*
X7785714Y16009247D01*
X7785714Y16009247D02*
X7880952Y15961628D01*
X7880952Y15961628D02*
X7928571Y15866390D01*
X7928571Y15866390D02*
X7928571Y15771152D01*
X7928571Y15771152D02*
X7452381Y15675914D01*
X8357143Y15342580D02*
X8357143Y16009247D01*
X8357143Y15818771D02*
X8404762Y15914009D01*
X8404762Y15914009D02*
X8452381Y15961628D01*
X8452381Y15961628D02*
X8547619Y16009247D01*
X8547619Y16009247D02*
X8642857Y16009247D01*
X9500000Y15342580D02*
X8928572Y15342580D01*
X9214286Y15342580D02*
X9214286Y16342580D01*
X9214286Y16342580D02*
X9119048Y16199723D01*
X9119048Y16199723D02*
X9023810Y16104485D01*
X9023810Y16104485D02*
X8928572Y16056866D01*
X17503884Y19927580D02*
X17503884Y20927580D01*
X17503884Y20546628D02*
X17599122Y20594247D01*
X17599122Y20594247D02*
X17789598Y20594247D01*
X17789598Y20594247D02*
X17884836Y20546628D01*
X17884836Y20546628D02*
X17932455Y20499009D01*
X17932455Y20499009D02*
X17980074Y20403771D01*
X17980074Y20403771D02*
X17980074Y20118057D01*
X17980074Y20118057D02*
X17932455Y20022819D01*
X17932455Y20022819D02*
X17884836Y19975200D01*
X17884836Y19975200D02*
X17789598Y19927580D01*
X17789598Y19927580D02*
X17599122Y19927580D01*
X17599122Y19927580D02*
X17503884Y19975200D01*
X18837217Y20594247D02*
X18837217Y19927580D01*
X18408646Y20594247D02*
X18408646Y20070438D01*
X18408646Y20070438D02*
X18456265Y19975200D01*
X18456265Y19975200D02*
X18551503Y19927580D01*
X18551503Y19927580D02*
X18694360Y19927580D01*
X18694360Y19927580D02*
X18789598Y19975200D01*
X18789598Y19975200D02*
X18837217Y20022819D01*
X19170551Y20594247D02*
X19551503Y20594247D01*
X19313408Y20927580D02*
X19313408Y20070438D01*
X19313408Y20070438D02*
X19361027Y19975200D01*
X19361027Y19975200D02*
X19456265Y19927580D01*
X19456265Y19927580D02*
X19551503Y19927580D01*
X19741980Y20594247D02*
X20122932Y20594247D01*
X19884837Y20927580D02*
X19884837Y20070438D01*
X19884837Y20070438D02*
X19932456Y19975200D01*
X19932456Y19975200D02*
X20027694Y19927580D01*
X20027694Y19927580D02*
X20122932Y19927580D01*
X20599123Y19927580D02*
X20503885Y19975200D01*
X20503885Y19975200D02*
X20456266Y20022819D01*
X20456266Y20022819D02*
X20408647Y20118057D01*
X20408647Y20118057D02*
X20408647Y20403771D01*
X20408647Y20403771D02*
X20456266Y20499009D01*
X20456266Y20499009D02*
X20503885Y20546628D01*
X20503885Y20546628D02*
X20599123Y20594247D01*
X20599123Y20594247D02*
X20741980Y20594247D01*
X20741980Y20594247D02*
X20837218Y20546628D01*
X20837218Y20546628D02*
X20884837Y20499009D01*
X20884837Y20499009D02*
X20932456Y20403771D01*
X20932456Y20403771D02*
X20932456Y20118057D01*
X20932456Y20118057D02*
X20884837Y20022819D01*
X20884837Y20022819D02*
X20837218Y19975200D01*
X20837218Y19975200D02*
X20741980Y19927580D01*
X20741980Y19927580D02*
X20599123Y19927580D01*
X21361028Y20594247D02*
X21361028Y19927580D01*
X21361028Y20499009D02*
X21408647Y20546628D01*
X21408647Y20546628D02*
X21503885Y20594247D01*
X21503885Y20594247D02*
X21646742Y20594247D01*
X21646742Y20594247D02*
X21741980Y20546628D01*
X21741980Y20546628D02*
X21789599Y20451390D01*
X21789599Y20451390D02*
X21789599Y19927580D01*
X16451428Y195942580D02*
X15975238Y195942580D01*
X15975238Y195942580D02*
X15975238Y196942580D01*
X16784762Y196466390D02*
X17118095Y196466390D01*
X17260952Y195942580D02*
X16784762Y195942580D01*
X16784762Y195942580D02*
X16784762Y196942580D01*
X16784762Y196942580D02*
X17260952Y196942580D01*
X17689524Y195942580D02*
X17689524Y196942580D01*
X17689524Y196942580D02*
X17927619Y196942580D01*
X17927619Y196942580D02*
X18070476Y196894961D01*
X18070476Y196894961D02*
X18165714Y196799723D01*
X18165714Y196799723D02*
X18213333Y196704485D01*
X18213333Y196704485D02*
X18260952Y196514009D01*
X18260952Y196514009D02*
X18260952Y196371152D01*
X18260952Y196371152D02*
X18213333Y196180676D01*
X18213333Y196180676D02*
X18165714Y196085438D01*
X18165714Y196085438D02*
X18070476Y195990200D01*
X18070476Y195990200D02*
X17927619Y195942580D01*
X17927619Y195942580D02*
X17689524Y195942580D01*
X18451429Y195847342D02*
X19213333Y195847342D01*
X19403810Y196228295D02*
X19880000Y196228295D01*
X19308572Y195942580D02*
X19641905Y196942580D01*
X19641905Y196942580D02*
X19975238Y195942580D01*
X20641905Y196466390D02*
X20784762Y196418771D01*
X20784762Y196418771D02*
X20832381Y196371152D01*
X20832381Y196371152D02*
X20880000Y196275914D01*
X20880000Y196275914D02*
X20880000Y196133057D01*
X20880000Y196133057D02*
X20832381Y196037819D01*
X20832381Y196037819D02*
X20784762Y195990200D01*
X20784762Y195990200D02*
X20689524Y195942580D01*
X20689524Y195942580D02*
X20308572Y195942580D01*
X20308572Y195942580D02*
X20308572Y196942580D01*
X20308572Y196942580D02*
X20641905Y196942580D01*
X20641905Y196942580D02*
X20737143Y196894961D01*
X20737143Y196894961D02*
X20784762Y196847342D01*
X20784762Y196847342D02*
X20832381Y196752104D01*
X20832381Y196752104D02*
X20832381Y196656866D01*
X20832381Y196656866D02*
X20784762Y196561628D01*
X20784762Y196561628D02*
X20737143Y196514009D01*
X20737143Y196514009D02*
X20641905Y196466390D01*
X20641905Y196466390D02*
X20308572Y196466390D01*
X21832381Y196894961D02*
X21737143Y196942580D01*
X21737143Y196942580D02*
X21594286Y196942580D01*
X21594286Y196942580D02*
X21451429Y196894961D01*
X21451429Y196894961D02*
X21356191Y196799723D01*
X21356191Y196799723D02*
X21308572Y196704485D01*
X21308572Y196704485D02*
X21260953Y196514009D01*
X21260953Y196514009D02*
X21260953Y196371152D01*
X21260953Y196371152D02*
X21308572Y196180676D01*
X21308572Y196180676D02*
X21356191Y196085438D01*
X21356191Y196085438D02*
X21451429Y195990200D01*
X21451429Y195990200D02*
X21594286Y195942580D01*
X21594286Y195942580D02*
X21689524Y195942580D01*
X21689524Y195942580D02*
X21832381Y195990200D01*
X21832381Y195990200D02*
X21880000Y196037819D01*
X21880000Y196037819D02*
X21880000Y196371152D01*
X21880000Y196371152D02*
X21689524Y196371152D01*
X22880000Y195942580D02*
X22546667Y196418771D01*
X22308572Y195942580D02*
X22308572Y196942580D01*
X22308572Y196942580D02*
X22689524Y196942580D01*
X22689524Y196942580D02*
X22784762Y196894961D01*
X22784762Y196894961D02*
X22832381Y196847342D01*
X22832381Y196847342D02*
X22880000Y196752104D01*
X22880000Y196752104D02*
X22880000Y196609247D01*
X22880000Y196609247D02*
X22832381Y196514009D01*
X22832381Y196514009D02*
X22784762Y196466390D01*
X22784762Y196466390D02*
X22689524Y196418771D01*
X22689524Y196418771D02*
X22308572Y196418771D01*
X23832381Y195942580D02*
X23260953Y195942580D01*
X23546667Y195942580D02*
X23546667Y196942580D01*
X23546667Y196942580D02*
X23451429Y196799723D01*
X23451429Y196799723D02*
X23356191Y196704485D01*
X23356191Y196704485D02*
X23260953Y196656866D01*
X19503884Y155594247D02*
X19503884Y154927580D01*
X19503884Y155499009D02*
X19551503Y155546628D01*
X19551503Y155546628D02*
X19646741Y155594247D01*
X19646741Y155594247D02*
X19789598Y155594247D01*
X19789598Y155594247D02*
X19884836Y155546628D01*
X19884836Y155546628D02*
X19932455Y155451390D01*
X19932455Y155451390D02*
X19932455Y154927580D01*
X20408646Y155594247D02*
X20408646Y154594247D01*
X20408646Y155546628D02*
X20503884Y155594247D01*
X20503884Y155594247D02*
X20694360Y155594247D01*
X20694360Y155594247D02*
X20789598Y155546628D01*
X20789598Y155546628D02*
X20837217Y155499009D01*
X20837217Y155499009D02*
X20884836Y155403771D01*
X20884836Y155403771D02*
X20884836Y155118057D01*
X20884836Y155118057D02*
X20837217Y155022819D01*
X20837217Y155022819D02*
X20789598Y154975200D01*
X20789598Y154975200D02*
X20694360Y154927580D01*
X20694360Y154927580D02*
X20503884Y154927580D01*
X20503884Y154927580D02*
X20408646Y154975200D01*
X21313408Y155594247D02*
X21313408Y154927580D01*
X21313408Y155499009D02*
X21361027Y155546628D01*
X21361027Y155546628D02*
X21456265Y155594247D01*
X21456265Y155594247D02*
X21599122Y155594247D01*
X21599122Y155594247D02*
X21694360Y155546628D01*
X21694360Y155546628D02*
X21741979Y155451390D01*
X21741979Y155451390D02*
X21741979Y154927580D01*
X17509523Y122942580D02*
X17509523Y123942580D01*
X17509523Y123942580D02*
X17842856Y123228295D01*
X17842856Y123228295D02*
X18176189Y123942580D01*
X18176189Y123942580D02*
X18176189Y122942580D01*
X18795237Y122942580D02*
X18699999Y122990200D01*
X18699999Y122990200D02*
X18652380Y123037819D01*
X18652380Y123037819D02*
X18604761Y123133057D01*
X18604761Y123133057D02*
X18604761Y123418771D01*
X18604761Y123418771D02*
X18652380Y123514009D01*
X18652380Y123514009D02*
X18699999Y123561628D01*
X18699999Y123561628D02*
X18795237Y123609247D01*
X18795237Y123609247D02*
X18938094Y123609247D01*
X18938094Y123609247D02*
X19033332Y123561628D01*
X19033332Y123561628D02*
X19080951Y123514009D01*
X19080951Y123514009D02*
X19128570Y123418771D01*
X19128570Y123418771D02*
X19128570Y123133057D01*
X19128570Y123133057D02*
X19080951Y123037819D01*
X19080951Y123037819D02*
X19033332Y122990200D01*
X19033332Y122990200D02*
X18938094Y122942580D01*
X18938094Y122942580D02*
X18795237Y122942580D01*
X19414285Y123609247D02*
X19795237Y123609247D01*
X19557142Y123942580D02*
X19557142Y123085438D01*
X19557142Y123085438D02*
X19604761Y122990200D01*
X19604761Y122990200D02*
X19699999Y122942580D01*
X19699999Y122942580D02*
X19795237Y122942580D01*
X20271428Y122942580D02*
X20176190Y122990200D01*
X20176190Y122990200D02*
X20128571Y123037819D01*
X20128571Y123037819D02*
X20080952Y123133057D01*
X20080952Y123133057D02*
X20080952Y123418771D01*
X20080952Y123418771D02*
X20128571Y123514009D01*
X20128571Y123514009D02*
X20176190Y123561628D01*
X20176190Y123561628D02*
X20271428Y123609247D01*
X20271428Y123609247D02*
X20414285Y123609247D01*
X20414285Y123609247D02*
X20509523Y123561628D01*
X20509523Y123561628D02*
X20557142Y123514009D01*
X20557142Y123514009D02*
X20604761Y123418771D01*
X20604761Y123418771D02*
X20604761Y123133057D01*
X20604761Y123133057D02*
X20557142Y123037819D01*
X20557142Y123037819D02*
X20509523Y122990200D01*
X20509523Y122990200D02*
X20414285Y122942580D01*
X20414285Y122942580D02*
X20271428Y122942580D01*
X21033333Y122942580D02*
X21033333Y123609247D01*
X21033333Y123418771D02*
X21080952Y123514009D01*
X21080952Y123514009D02*
X21128571Y123561628D01*
X21128571Y123561628D02*
X21223809Y123609247D01*
X21223809Y123609247D02*
X21319047Y123609247D01*
X21414286Y122847342D02*
X22176190Y122847342D01*
X22414286Y122942580D02*
X22414286Y123942580D01*
X22414286Y123942580D02*
X22652381Y123942580D01*
X22652381Y123942580D02*
X22795238Y123894961D01*
X22795238Y123894961D02*
X22890476Y123799723D01*
X22890476Y123799723D02*
X22938095Y123704485D01*
X22938095Y123704485D02*
X22985714Y123514009D01*
X22985714Y123514009D02*
X22985714Y123371152D01*
X22985714Y123371152D02*
X22938095Y123180676D01*
X22938095Y123180676D02*
X22890476Y123085438D01*
X22890476Y123085438D02*
X22795238Y122990200D01*
X22795238Y122990200D02*
X22652381Y122942580D01*
X22652381Y122942580D02*
X22414286Y122942580D01*
X23985714Y123037819D02*
X23938095Y122990200D01*
X23938095Y122990200D02*
X23795238Y122942580D01*
X23795238Y122942580D02*
X23700000Y122942580D01*
X23700000Y122942580D02*
X23557143Y122990200D01*
X23557143Y122990200D02*
X23461905Y123085438D01*
X23461905Y123085438D02*
X23414286Y123180676D01*
X23414286Y123180676D02*
X23366667Y123371152D01*
X23366667Y123371152D02*
X23366667Y123514009D01*
X23366667Y123514009D02*
X23414286Y123704485D01*
X23414286Y123704485D02*
X23461905Y123799723D01*
X23461905Y123799723D02*
X23557143Y123894961D01*
X23557143Y123894961D02*
X23700000Y123942580D01*
X23700000Y123942580D02*
X23795238Y123942580D01*
X23795238Y123942580D02*
X23938095Y123894961D01*
X23938095Y123894961D02*
X23985714Y123847342D01*
X24938095Y122942580D02*
X24366667Y122942580D01*
X24652381Y122942580D02*
X24652381Y123942580D01*
X24652381Y123942580D02*
X24557143Y123799723D01*
X24557143Y123799723D02*
X24461905Y123704485D01*
X24461905Y123704485D02*
X24366667Y123656866D01*
X29909524Y15590200D02*
X30052381Y15542580D01*
X30052381Y15542580D02*
X30290476Y15542580D01*
X30290476Y15542580D02*
X30385714Y15590200D01*
X30385714Y15590200D02*
X30433333Y15637819D01*
X30433333Y15637819D02*
X30480952Y15733057D01*
X30480952Y15733057D02*
X30480952Y15828295D01*
X30480952Y15828295D02*
X30433333Y15923533D01*
X30433333Y15923533D02*
X30385714Y15971152D01*
X30385714Y15971152D02*
X30290476Y16018771D01*
X30290476Y16018771D02*
X30100000Y16066390D01*
X30100000Y16066390D02*
X30004762Y16114009D01*
X30004762Y16114009D02*
X29957143Y16161628D01*
X29957143Y16161628D02*
X29909524Y16256866D01*
X29909524Y16256866D02*
X29909524Y16352104D01*
X29909524Y16352104D02*
X29957143Y16447342D01*
X29957143Y16447342D02*
X30004762Y16494961D01*
X30004762Y16494961D02*
X30100000Y16542580D01*
X30100000Y16542580D02*
X30338095Y16542580D01*
X30338095Y16542580D02*
X30480952Y16494961D01*
X30814286Y16209247D02*
X31004762Y15542580D01*
X31004762Y15542580D02*
X31195238Y16018771D01*
X31195238Y16018771D02*
X31385714Y15542580D01*
X31385714Y15542580D02*
X31576190Y16209247D01*
X31957143Y15542580D02*
X31957143Y16209247D01*
X31957143Y16542580D02*
X31909524Y16494961D01*
X31909524Y16494961D02*
X31957143Y16447342D01*
X31957143Y16447342D02*
X32004762Y16494961D01*
X32004762Y16494961D02*
X31957143Y16542580D01*
X31957143Y16542580D02*
X31957143Y16447342D01*
X32290476Y16209247D02*
X32671428Y16209247D01*
X32433333Y16542580D02*
X32433333Y15685438D01*
X32433333Y15685438D02*
X32480952Y15590200D01*
X32480952Y15590200D02*
X32576190Y15542580D01*
X32576190Y15542580D02*
X32671428Y15542580D01*
X33433333Y15590200D02*
X33338095Y15542580D01*
X33338095Y15542580D02*
X33147619Y15542580D01*
X33147619Y15542580D02*
X33052381Y15590200D01*
X33052381Y15590200D02*
X33004762Y15637819D01*
X33004762Y15637819D02*
X32957143Y15733057D01*
X32957143Y15733057D02*
X32957143Y16018771D01*
X32957143Y16018771D02*
X33004762Y16114009D01*
X33004762Y16114009D02*
X33052381Y16161628D01*
X33052381Y16161628D02*
X33147619Y16209247D01*
X33147619Y16209247D02*
X33338095Y16209247D01*
X33338095Y16209247D02*
X33433333Y16161628D01*
X33861905Y15542580D02*
X33861905Y16542580D01*
X34290476Y15542580D02*
X34290476Y16066390D01*
X34290476Y16066390D02*
X34242857Y16161628D01*
X34242857Y16161628D02*
X34147619Y16209247D01*
X34147619Y16209247D02*
X34004762Y16209247D01*
X34004762Y16209247D02*
X33909524Y16161628D01*
X33909524Y16161628D02*
X33861905Y16114009D01*
X35290476Y15542580D02*
X34719048Y15542580D01*
X35004762Y15542580D02*
X35004762Y16542580D01*
X35004762Y16542580D02*
X34909524Y16399723D01*
X34909524Y16399723D02*
X34814286Y16304485D01*
X34814286Y16304485D02*
X34719048Y16256866D01*
X23857419Y140649523D02*
X22857419Y140649523D01*
X23238371Y140649523D02*
X23190752Y140744761D01*
X23190752Y140744761D02*
X23190752Y140935237D01*
X23190752Y140935237D02*
X23238371Y141030475D01*
X23238371Y141030475D02*
X23285990Y141078094D01*
X23285990Y141078094D02*
X23381228Y141125713D01*
X23381228Y141125713D02*
X23666942Y141125713D01*
X23666942Y141125713D02*
X23762180Y141078094D01*
X23762180Y141078094D02*
X23809800Y141030475D01*
X23809800Y141030475D02*
X23857419Y140935237D01*
X23857419Y140935237D02*
X23857419Y140744761D01*
X23857419Y140744761D02*
X23809800Y140649523D01*
X23857419Y141982856D02*
X23333609Y141982856D01*
X23333609Y141982856D02*
X23238371Y141935237D01*
X23238371Y141935237D02*
X23190752Y141839999D01*
X23190752Y141839999D02*
X23190752Y141649523D01*
X23190752Y141649523D02*
X23238371Y141554285D01*
X23809800Y141982856D02*
X23857419Y141887618D01*
X23857419Y141887618D02*
X23857419Y141649523D01*
X23857419Y141649523D02*
X23809800Y141554285D01*
X23809800Y141554285D02*
X23714561Y141506666D01*
X23714561Y141506666D02*
X23619323Y141506666D01*
X23619323Y141506666D02*
X23524085Y141554285D01*
X23524085Y141554285D02*
X23476466Y141649523D01*
X23476466Y141649523D02*
X23476466Y141887618D01*
X23476466Y141887618D02*
X23428847Y141982856D01*
X23809800Y142411428D02*
X23857419Y142506666D01*
X23857419Y142506666D02*
X23857419Y142697142D01*
X23857419Y142697142D02*
X23809800Y142792380D01*
X23809800Y142792380D02*
X23714561Y142839999D01*
X23714561Y142839999D02*
X23666942Y142839999D01*
X23666942Y142839999D02*
X23571704Y142792380D01*
X23571704Y142792380D02*
X23524085Y142697142D01*
X23524085Y142697142D02*
X23524085Y142554285D01*
X23524085Y142554285D02*
X23476466Y142459047D01*
X23476466Y142459047D02*
X23381228Y142411428D01*
X23381228Y142411428D02*
X23333609Y142411428D01*
X23333609Y142411428D02*
X23238371Y142459047D01*
X23238371Y142459047D02*
X23190752Y142554285D01*
X23190752Y142554285D02*
X23190752Y142697142D01*
X23190752Y142697142D02*
X23238371Y142792380D01*
X23809800Y143649523D02*
X23857419Y143554285D01*
X23857419Y143554285D02*
X23857419Y143363809D01*
X23857419Y143363809D02*
X23809800Y143268571D01*
X23809800Y143268571D02*
X23714561Y143220952D01*
X23714561Y143220952D02*
X23333609Y143220952D01*
X23333609Y143220952D02*
X23238371Y143268571D01*
X23238371Y143268571D02*
X23190752Y143363809D01*
X23190752Y143363809D02*
X23190752Y143554285D01*
X23190752Y143554285D02*
X23238371Y143649523D01*
X23238371Y143649523D02*
X23333609Y143697142D01*
X23333609Y143697142D02*
X23428847Y143697142D01*
X23428847Y143697142D02*
X23524085Y143220952D01*
X23952657Y143887619D02*
X23952657Y144649523D01*
X23857419Y144887619D02*
X23190752Y144887619D01*
X23381228Y144887619D02*
X23285990Y144935238D01*
X23285990Y144935238D02*
X23238371Y144982857D01*
X23238371Y144982857D02*
X23190752Y145078095D01*
X23190752Y145078095D02*
X23190752Y145173333D01*
X23809800Y145887619D02*
X23857419Y145792381D01*
X23857419Y145792381D02*
X23857419Y145601905D01*
X23857419Y145601905D02*
X23809800Y145506667D01*
X23809800Y145506667D02*
X23714561Y145459048D01*
X23714561Y145459048D02*
X23333609Y145459048D01*
X23333609Y145459048D02*
X23238371Y145506667D01*
X23238371Y145506667D02*
X23190752Y145601905D01*
X23190752Y145601905D02*
X23190752Y145792381D01*
X23190752Y145792381D02*
X23238371Y145887619D01*
X23238371Y145887619D02*
X23333609Y145935238D01*
X23333609Y145935238D02*
X23428847Y145935238D01*
X23428847Y145935238D02*
X23524085Y145459048D01*
X23809800Y146316191D02*
X23857419Y146411429D01*
X23857419Y146411429D02*
X23857419Y146601905D01*
X23857419Y146601905D02*
X23809800Y146697143D01*
X23809800Y146697143D02*
X23714561Y146744762D01*
X23714561Y146744762D02*
X23666942Y146744762D01*
X23666942Y146744762D02*
X23571704Y146697143D01*
X23571704Y146697143D02*
X23524085Y146601905D01*
X23524085Y146601905D02*
X23524085Y146459048D01*
X23524085Y146459048D02*
X23476466Y146363810D01*
X23476466Y146363810D02*
X23381228Y146316191D01*
X23381228Y146316191D02*
X23333609Y146316191D01*
X23333609Y146316191D02*
X23238371Y146363810D01*
X23238371Y146363810D02*
X23190752Y146459048D01*
X23190752Y146459048D02*
X23190752Y146601905D01*
X23190752Y146601905D02*
X23238371Y146697143D01*
X23857419Y147173334D02*
X23190752Y147173334D01*
X22857419Y147173334D02*
X22905038Y147125715D01*
X22905038Y147125715D02*
X22952657Y147173334D01*
X22952657Y147173334D02*
X22905038Y147220953D01*
X22905038Y147220953D02*
X22857419Y147173334D01*
X22857419Y147173334D02*
X22952657Y147173334D01*
X23809800Y147601905D02*
X23857419Y147697143D01*
X23857419Y147697143D02*
X23857419Y147887619D01*
X23857419Y147887619D02*
X23809800Y147982857D01*
X23809800Y147982857D02*
X23714561Y148030476D01*
X23714561Y148030476D02*
X23666942Y148030476D01*
X23666942Y148030476D02*
X23571704Y147982857D01*
X23571704Y147982857D02*
X23524085Y147887619D01*
X23524085Y147887619D02*
X23524085Y147744762D01*
X23524085Y147744762D02*
X23476466Y147649524D01*
X23476466Y147649524D02*
X23381228Y147601905D01*
X23381228Y147601905D02*
X23333609Y147601905D01*
X23333609Y147601905D02*
X23238371Y147649524D01*
X23238371Y147649524D02*
X23190752Y147744762D01*
X23190752Y147744762D02*
X23190752Y147887619D01*
X23190752Y147887619D02*
X23238371Y147982857D01*
X23190752Y148316191D02*
X23190752Y148697143D01*
X22857419Y148459048D02*
X23714561Y148459048D01*
X23714561Y148459048D02*
X23809800Y148506667D01*
X23809800Y148506667D02*
X23857419Y148601905D01*
X23857419Y148601905D02*
X23857419Y148697143D01*
X23857419Y149173334D02*
X23809800Y149078096D01*
X23809800Y149078096D02*
X23762180Y149030477D01*
X23762180Y149030477D02*
X23666942Y148982858D01*
X23666942Y148982858D02*
X23381228Y148982858D01*
X23381228Y148982858D02*
X23285990Y149030477D01*
X23285990Y149030477D02*
X23238371Y149078096D01*
X23238371Y149078096D02*
X23190752Y149173334D01*
X23190752Y149173334D02*
X23190752Y149316191D01*
X23190752Y149316191D02*
X23238371Y149411429D01*
X23238371Y149411429D02*
X23285990Y149459048D01*
X23285990Y149459048D02*
X23381228Y149506667D01*
X23381228Y149506667D02*
X23666942Y149506667D01*
X23666942Y149506667D02*
X23762180Y149459048D01*
X23762180Y149459048D02*
X23809800Y149411429D01*
X23809800Y149411429D02*
X23857419Y149316191D01*
X23857419Y149316191D02*
X23857419Y149173334D01*
X23857419Y149935239D02*
X23190752Y149935239D01*
X23381228Y149935239D02*
X23285990Y149982858D01*
X23285990Y149982858D02*
X23238371Y150030477D01*
X23238371Y150030477D02*
X23190752Y150125715D01*
X23190752Y150125715D02*
X23190752Y150220953D01*
X23857419Y151078096D02*
X23857419Y150506668D01*
X23857419Y150792382D02*
X22857419Y150792382D01*
X22857419Y150792382D02*
X23000276Y150697144D01*
X23000276Y150697144D02*
X23095514Y150601906D01*
X23095514Y150601906D02*
X23143133Y150506668D01*
X18285713Y130866390D02*
X17952380Y130866390D01*
X17952380Y130342580D02*
X17952380Y131342580D01*
X17952380Y131342580D02*
X18428570Y131342580D01*
X18952380Y130342580D02*
X18857142Y130390200D01*
X18857142Y130390200D02*
X18809523Y130485438D01*
X18809523Y130485438D02*
X18809523Y131342580D01*
X19238095Y131009247D02*
X19476190Y130342580D01*
X19714285Y131009247D02*
X19476190Y130342580D01*
X19476190Y130342580D02*
X19380952Y130104485D01*
X19380952Y130104485D02*
X19333333Y130056866D01*
X19333333Y130056866D02*
X19238095Y130009247D01*
X20095238Y130342580D02*
X20095238Y131342580D01*
X20095238Y130961628D02*
X20190476Y131009247D01*
X20190476Y131009247D02*
X20380952Y131009247D01*
X20380952Y131009247D02*
X20476190Y130961628D01*
X20476190Y130961628D02*
X20523809Y130914009D01*
X20523809Y130914009D02*
X20571428Y130818771D01*
X20571428Y130818771D02*
X20571428Y130533057D01*
X20571428Y130533057D02*
X20523809Y130437819D01*
X20523809Y130437819D02*
X20476190Y130390200D01*
X20476190Y130390200D02*
X20380952Y130342580D01*
X20380952Y130342580D02*
X20190476Y130342580D01*
X20190476Y130342580D02*
X20095238Y130390200D01*
X21428571Y130342580D02*
X21428571Y130866390D01*
X21428571Y130866390D02*
X21380952Y130961628D01*
X21380952Y130961628D02*
X21285714Y131009247D01*
X21285714Y131009247D02*
X21095238Y131009247D01*
X21095238Y131009247D02*
X21000000Y130961628D01*
X21428571Y130390200D02*
X21333333Y130342580D01*
X21333333Y130342580D02*
X21095238Y130342580D01*
X21095238Y130342580D02*
X21000000Y130390200D01*
X21000000Y130390200D02*
X20952381Y130485438D01*
X20952381Y130485438D02*
X20952381Y130580676D01*
X20952381Y130580676D02*
X21000000Y130675914D01*
X21000000Y130675914D02*
X21095238Y130723533D01*
X21095238Y130723533D02*
X21333333Y130723533D01*
X21333333Y130723533D02*
X21428571Y130771152D01*
X22333333Y130390200D02*
X22238095Y130342580D01*
X22238095Y130342580D02*
X22047619Y130342580D01*
X22047619Y130342580D02*
X21952381Y130390200D01*
X21952381Y130390200D02*
X21904762Y130437819D01*
X21904762Y130437819D02*
X21857143Y130533057D01*
X21857143Y130533057D02*
X21857143Y130818771D01*
X21857143Y130818771D02*
X21904762Y130914009D01*
X21904762Y130914009D02*
X21952381Y130961628D01*
X21952381Y130961628D02*
X22047619Y131009247D01*
X22047619Y131009247D02*
X22238095Y131009247D01*
X22238095Y131009247D02*
X22333333Y130961628D01*
X22761905Y130342580D02*
X22761905Y131342580D01*
X22857143Y130723533D02*
X23142857Y130342580D01*
X23142857Y131009247D02*
X22761905Y130628295D01*
X24095238Y130342580D02*
X23523810Y130342580D01*
X23809524Y130342580D02*
X23809524Y131342580D01*
X23809524Y131342580D02*
X23714286Y131199723D01*
X23714286Y131199723D02*
X23619048Y131104485D01*
X23619048Y131104485D02*
X23523810Y131056866D01*
%TO.C,U3*%
X3000000Y21500000D02*
X37000000Y21500000D01*
X37000000Y81500000D01*
X3000000Y81500000D01*
X3000000Y21500000D01*
%TO.C,Power1*%
X620000Y17240000D02*
X13620000Y17240000D01*
X13620000Y14240000D01*
X620000Y14240000D01*
X620000Y17240000D01*
%TO.C,U2*%
X14540000Y11500000D02*
X25040000Y11500000D01*
X25040000Y19500000D01*
X14540000Y19500000D01*
X14540000Y11500000D01*
%TO.C,LED_ABGR1*%
X14960000Y194900000D02*
X25960000Y194900000D01*
X25960000Y191900000D01*
X14960000Y191900000D01*
X14960000Y194900000D01*
%TO.C,Q1*%
X16560000Y156100000D02*
X24560000Y156100000D01*
X24560000Y159100000D01*
X16560000Y159100000D01*
X16560000Y156100000D01*
%TO.C,Motor_DC1*%
X14500000Y124800000D02*
X27500000Y124800000D01*
X27500000Y121800000D01*
X14500000Y121800000D01*
X14500000Y124800000D01*
%TO.C,Switch1*%
X26100000Y17300000D02*
X39100000Y17300000D01*
X39100000Y14300000D01*
X26100000Y14300000D01*
X26100000Y17300000D01*
%TO.C,base_resistor1*%
X19100000Y139340000D02*
X22100000Y139340000D01*
X22100000Y152340000D01*
X19100000Y152340000D01*
X19100000Y139340000D01*
%TO.C,Flyback1*%
X27500000Y129300000D02*
X14500000Y129300000D01*
X14500000Y132300000D01*
X27500000Y132300000D01*
X27500000Y129300000D01*
%TO.C,LED_ARGB1*%
X11200000Y187740000D02*
X28950000Y187740000D01*
X28950000Y165740000D01*
X11200000Y165740000D01*
X11200000Y187740000D01*
%TD*%
M02*
