%TF.GenerationSoftware,KiCad,Pcbnew,9.0.4*%
%TF.CreationDate,2025-11-10T20:34:51-07:00*%
%TF.ProjectId,ideaspark_esp_board,69646561-7370-4617-926b-5f6573705f62,rev?*%
%TF.SameCoordinates,Original*%
%TF.FileFunction,Copper,L1,Top*%
%TF.FilePolarity,Positive*%
%FSLAX46Y46*%
G04 Gerber Fmt 4.6, Leading zero omitted, Abs format (unit mm)*
G04 Created by KiCad (PCBNEW 9.0.4) date 2025-11-10 20:34:51*
%MOMM*%
%LPD*%
G01*
G04 APERTURE LIST*
%TA.AperFunction,ComponentPad*%
%ADD10C,2.200000*%
%TD*%
%TA.AperFunction,ViaPad*%
%ADD11C,0.600000*%
%TD*%
%TA.AperFunction,Conductor*%
%ADD12C,0.200000*%
%TD*%
G04 APERTURE END LIST*
D10*
%TO.P,U3,30,GPIO23*%
%TO.N,unconnected-(U3-GPIO23-Pad30)*%
X34000000Y69280000D03*
%TO.P,U3,29,GPIO22*%
%TO.N,/SCL*%
X34000000Y66740000D03*
%TO.P,U3,28,GPIO1*%
%TO.N,unconnected-(U3-GPIO1-Pad28)*%
X34000000Y64200000D03*
%TO.P,U3,27,GPIO3*%
%TO.N,unconnected-(U3-GPIO3-Pad27)*%
X34000000Y61660000D03*
%TO.P,U3,26,GPI021*%
%TO.N,/SDA*%
X34000000Y59120000D03*
%TO.P,U3,25,GPIO19*%
%TO.N,unconnected-(U3-GPIO19-Pad25)*%
X34000000Y56580000D03*
%TO.P,U3,24,GPIO18*%
%TO.N,unconnected-(U3-GPIO18-Pad24)*%
X34000000Y54040000D03*
%TO.P,U3,23,GPIO5*%
%TO.N,unconnected-(U3-GPIO5-Pad23)*%
X34000000Y51500000D03*
%TO.P,U3,22,GPIO17*%
%TO.N,unconnected-(U3-GPIO17-Pad22)*%
X34000000Y48960000D03*
%TO.P,U3,21,GPIO16*%
%TO.N,unconnected-(U3-GPIO16-Pad21)*%
X34000000Y46420000D03*
%TO.P,U3,20,GPIO4*%
%TO.N,unconnected-(U3-GPIO4-Pad20)*%
X34000000Y43880000D03*
%TO.P,U3,19,GPIO2*%
%TO.N,unconnected-(U3-GPIO2-Pad19)*%
X34000000Y41340000D03*
%TO.P,U3,18,GPIO15*%
%TO.N,unconnected-(U3-GPIO15-Pad18)*%
X34000000Y38800000D03*
%TO.P,U3,17,GND*%
%TO.N,/GND*%
X34000000Y36260000D03*
%TO.P,U3,16,3.3V*%
%TO.N,unconnected-(U3-3.3V-Pad16)*%
X34000000Y33720000D03*
%TO.P,U3,15,ENABLE*%
%TO.N,unconnected-(U3-ENABLE-Pad15)*%
X6000000Y69280000D03*
%TO.P,U3,14,GPIX36*%
%TO.N,unconnected-(U3-GPIX36-Pad14)*%
X6000000Y66740000D03*
%TO.P,U3,13,GPIX39*%
%TO.N,unconnected-(U3-GPIX39-Pad13)*%
X6000000Y64200000D03*
%TO.P,U3,12,GPIX34*%
%TO.N,unconnected-(U3-GPIX34-Pad12)*%
X6000000Y61660000D03*
%TO.P,U3,11,GPIX35*%
%TO.N,unconnected-(U3-GPIX35-Pad11)*%
X6000000Y59120000D03*
%TO.P,U3,10,GPIO32*%
%TO.N,unconnected-(U3-GPIO32-Pad10)*%
X6000000Y56580000D03*
%TO.P,U3,9,GPIO33*%
%TO.N,/button*%
X6000000Y54040000D03*
%TO.P,U3,8,GPIO25*%
%TO.N,/RED*%
X6000000Y51500000D03*
%TO.P,U3,7,GPIO26*%
%TO.N,/GREEN*%
X6000000Y48960000D03*
%TO.P,U3,6,GPIO27*%
%TO.N,/BLUE*%
X6000000Y46420000D03*
%TO.P,U3,5,GPI014*%
%TO.N,/motor_control*%
X6000000Y43880000D03*
%TO.P,U3,4,GPIO12*%
%TO.N,unconnected-(U3-GPIO12-Pad4)*%
X6000000Y41340000D03*
%TO.P,U3,3,GPIO13*%
%TO.N,unconnected-(U3-GPIO13-Pad3)*%
X6000000Y38800000D03*
%TO.P,U3,2,GND*%
%TO.N,/GND*%
X6000000Y36260000D03*
%TO.P,U3,1,Vin*%
%TO.N,/Power*%
X6000000Y33720000D03*
%TD*%
%TO.P,Power1,2,GND*%
%TO.N,/SwitchPowerJunction*%
X12280000Y15740000D03*
%TO.P,Power1,1,Vcc*%
%TO.N,/Power*%
X2120000Y15740000D03*
%TD*%
%TO.P,U2,4,mt2*%
%TO.N,unconnected-(U2-mt2-Pad4)*%
X23600000Y18040000D03*
%TO.P,U2,3,mt1*%
%TO.N,unconnected-(U2-mt1-Pad3)*%
X23600000Y12960000D03*
%TO.P,U2,2,GND*%
%TO.N,/GND*%
X15980000Y18040000D03*
%TO.P,U2,1,signal*%
%TO.N,/button*%
X15980000Y12960000D03*
%TD*%
%TO.P,LED_ABGR1,1,A*%
%TO.N,/GND*%
X19000000Y193400000D03*
%TO.P,LED_ABGR1,2,BK*%
%TO.N,/BLUE*%
X24080000Y193400000D03*
%TO.P,LED_ABGR1,3,GK*%
%TO.N,/GREEN*%
X21540000Y193400000D03*
%TO.P,LED_ABGR1,4,RK*%
%TO.N,/RED*%
X16460000Y193400000D03*
%TD*%
%TO.P,Q1,B,B*%
%TO.N,/base_resistor*%
X20600000Y157600000D03*
%TO.P,Q1,C,C*%
%TO.N,/motor_ground*%
X18060000Y157600000D03*
%TO.P,Q1,E,E*%
%TO.N,/GND*%
X23140000Y157600000D03*
%TD*%
%TO.P,Motor_DC1,1,+*%
%TO.N,/Power*%
X16000000Y123300000D03*
%TO.P,Motor_DC1,2,-*%
%TO.N,/motor_ground*%
X26160000Y123300000D03*
%TD*%
%TO.P,Switch1,1,Vcc*%
%TO.N,/SwitchPowerJunction*%
X27600000Y15800000D03*
%TO.P,Switch1,2,GND*%
%TO.N,/GND*%
X37760000Y15800000D03*
%TD*%
%TO.P,base_resistor1,1*%
%TO.N,/motor_control*%
X20600000Y140840000D03*
%TO.P,base_resistor1,2*%
%TO.N,/base_resistor*%
X20600000Y151000000D03*
%TD*%
%TO.P,Flyback1,1,K*%
%TO.N,/motor_ground*%
X26000000Y130800000D03*
%TO.P,Flyback1,2,A*%
%TO.N,/Power*%
X15840000Y130800000D03*
%TD*%
%TO.P,LED_ARGB1,1,Vcc*%
%TO.N,/Power*%
X13200000Y185740000D03*
%TO.P,LED_ARGB1,2,Gnd*%
%TO.N,/GND*%
X13200000Y183200000D03*
%TO.P,LED_ARGB1,3,SCL*%
%TO.N,/SCL*%
X13200000Y180660000D03*
%TO.P,LED_ARGB1,4,SDA*%
%TO.N,/SDA*%
X13200000Y178120000D03*
%TO.P,LED_ARGB1,5,XDA*%
%TO.N,unconnected-(LED_ARGB1-XDA-Pad5)*%
X13200000Y175580000D03*
%TO.P,LED_ARGB1,6,XCL*%
%TO.N,unconnected-(LED_ARGB1-XCL-Pad6)*%
X13200000Y173040000D03*
%TO.P,LED_ARGB1,7,ADO*%
%TO.N,unconnected-(LED_ARGB1-ADO-Pad7)*%
X13200000Y170500000D03*
%TO.P,LED_ARGB1,8,INT*%
%TO.N,unconnected-(LED_ARGB1-INT-Pad8)*%
X13200000Y167960000D03*
%TD*%
D11*
%TO.N,/motor_control*%
X22000000Y137800000D03*
%TO.N,/BLUE*%
X11200000Y47000000D03*
%TO.N,/GREEN*%
X11700000Y50300000D03*
%TO.N,/RED*%
X10800000Y52200000D03*
%TO.N,/Power*%
X2600000Y34400000D03*
%TD*%
D12*
%TO.N,/GREEN*%
X11700000Y50300000D02*
X10360000Y48960000D01*
X10360000Y48960000D02*
X6000000Y48960000D01*
%TO.N,/SCL*%
X17200000Y176660000D02*
X13200000Y180660000D01*
X16400000Y157278686D02*
X16400000Y159200000D01*
X17200000Y160000000D02*
X17200000Y176660000D01*
X17600000Y136800000D02*
X17600000Y156078686D01*
X17600000Y156078686D02*
X16400000Y157278686D01*
X20600000Y133800000D02*
X17600000Y136800000D01*
X16400000Y159200000D02*
X17200000Y160000000D01*
X20600000Y80140000D02*
X20600000Y133800000D01*
X34000000Y66740000D02*
X20600000Y80140000D01*
%TO.N,/SDA*%
X18800000Y74320000D02*
X34000000Y59120000D01*
X15200000Y135400000D02*
X18800000Y131800000D01*
X18800000Y131800000D02*
X18800000Y74320000D01*
X15200000Y176120000D02*
X15200000Y135400000D01*
X13200000Y178120000D02*
X15200000Y176120000D01*
%TO.N,/GND*%
X38200000Y71200000D02*
X38200000Y40460000D01*
X27561000Y81839000D02*
X38200000Y71200000D01*
X38200000Y40460000D02*
X34000000Y36260000D01*
X27561000Y153179000D02*
X27561000Y81839000D01*
X23140000Y157600000D02*
X27561000Y153179000D01*
%TO.N,/button*%
X601000Y13399000D02*
X601000Y48641000D01*
X1040000Y12960000D02*
X601000Y13399000D01*
X15980000Y12960000D02*
X1040000Y12960000D01*
X601000Y48641000D02*
X6000000Y54040000D01*
%TO.N,/motor_ground*%
X18400000Y138400000D02*
X18400000Y157260000D01*
X18400000Y157260000D02*
X18060000Y157600000D01*
X26000000Y130800000D02*
X18400000Y138400000D01*
%TO.N,/motor_control*%
X20600000Y139200000D02*
X22000000Y137800000D01*
X20600000Y140840000D02*
X20600000Y139200000D01*
%TO.N,/BLUE*%
X10620000Y46420000D02*
X11200000Y47000000D01*
X6000000Y46420000D02*
X10620000Y46420000D01*
%TO.N,/RED*%
X10100000Y51500000D02*
X10800000Y52200000D01*
X6000000Y51500000D02*
X10100000Y51500000D01*
%TO.N,/Power*%
X3280000Y33720000D02*
X2600000Y34400000D01*
X6000000Y33720000D02*
X3280000Y33720000D01*
%TO.N,/GND*%
X34000000Y36260000D02*
X6000000Y36260000D01*
X15980000Y26280000D02*
X15980000Y18040000D01*
X6000000Y36260000D02*
X15980000Y26280000D01*
X19000000Y189000000D02*
X19000000Y193400000D01*
X13200000Y183200000D02*
X19000000Y189000000D01*
X23140000Y173260000D02*
X13200000Y183200000D01*
X23140000Y157600000D02*
X23140000Y173260000D01*
%TO.N,/base_resistor*%
X20600000Y151000000D02*
X20600000Y157600000D01*
%TO.N,/motor_ground*%
X26000000Y123460000D02*
X26160000Y123300000D01*
X26000000Y130800000D02*
X26000000Y123460000D01*
%TO.N,/Power*%
X15840000Y123460000D02*
X16000000Y123300000D01*
X15840000Y130800000D02*
X15840000Y123460000D01*
X10600000Y136040000D02*
X15840000Y130800000D01*
X10600000Y183140000D02*
X10600000Y136040000D01*
X13200000Y185740000D02*
X10600000Y183140000D01*
%TO.N,/SwitchPowerJunction*%
X27340000Y15740000D02*
X12280000Y15740000D01*
X27400000Y15800000D02*
X27340000Y15740000D01*
X27600000Y15800000D02*
X27400000Y15800000D01*
%TO.N,/Power*%
X6000000Y33720000D02*
X6000000Y19620000D01*
X6000000Y19620000D02*
X2120000Y15740000D01*
%TO.N,/GND*%
X37760000Y32500000D02*
X37760000Y15800000D01*
X34000000Y36260000D02*
X37760000Y32500000D01*
%TD*%
M02*
